<svg xmlns="http://www.w3.org/2000/svg" width="29" height="33" viewBox="0 0 29 33" fill="none">
  <path d="M28.2857 26.7143V28.2857H0V26.7143L3.14286 23.5714V14.1429C3.14286 9.27143 6.33286 4.98143 11 3.59857C11 3.44143 11 3.3 11 3.14286C11 2.30932 11.3311 1.50992 11.9205 0.920521C12.5099 0.331121 13.3093 0 14.1429 0C14.9764 0 15.7758 0.331121 16.3652 0.920521C16.9546 1.50992 17.2857 2.30932 17.2857 3.14286C17.2857 3.3 17.2857 3.44143 17.2857 3.59857C21.9529 4.98143 25.1429 9.27143 25.1429 14.1429V23.5714L28.2857 26.7143ZM17.2857 29.8571C17.2857 30.6907 16.9546 31.4901 16.3652 32.0795C15.7758 32.6689 14.9764 33 14.1429 33C13.3093 33 12.5099 32.6689 11.9205 32.0795C11.3311 31.4901 11 30.6907 11 29.8571" fill="black"/>
</svg>