<svg xmlns="http://www.w3.org/2000/svg" width="20" height="22" viewBox="0 0 20 22" fill="none">
  <path d="M6.6 9.9V12.1H4.4V9.9H6.6ZM11 9.9V12.1H8.8V9.9H11ZM15.4 9.9V12.1H13.2V9.9H15.4ZM17.6 2.2C18.1835 2.2 18.7431 2.43179 19.1556 2.84437C19.5682 3.25695 19.8 3.81652 19.8 4.4V19.8C19.8 20.3835 19.5682 20.9431 19.1556 21.3556C18.7431 21.7682 18.1835 22 17.6 22H2.2C0.979 22 0 21.01 0 19.8V4.4C0 3.81652 0.231785 3.25695 0.644365 2.84437C1.05694 2.43179 1.61652 2.2 2.2 2.2H3.3V0H5.5V2.2H14.3V0H16.5V2.2H17.6ZM17.6 19.8V7.7H2.2V19.8H17.6ZM6.6 14.3V16.5H4.4V14.3H6.6ZM11 14.3V16.5H8.8V14.3H11ZM15.4 14.3V16.5H13.2V14.3H15.4Z" fill="black"/>
</svg>