<svg width="479" height="383" viewBox="0 0 479 383" fill="none" xmlns="http://www.w3.org/2000/svg">
<g filter="url(#filter0_d_336_31)">
<rect width="471" height="375" rx="22" fill="#7BE2C3" fill-opacity="0.8" shape-rendering="crispEdges"/>
<path d="M178.487 40V37.8111L184.294 32.1183C184.849 31.5574 185.312 31.0592 185.682 30.6236C186.052 30.188 186.33 29.766 186.515 29.3576C186.7 28.9492 186.793 28.5136 186.793 28.0508C186.793 27.5226 186.673 27.0707 186.434 26.695C186.194 26.3138 185.865 26.0198 185.445 25.8129C185.026 25.6059 184.55 25.5025 184.016 25.5025C183.466 25.5025 182.984 25.6168 182.57 25.8455C182.156 26.0688 181.835 26.3873 181.607 26.8011C181.383 27.215 181.272 27.7077 181.272 28.2795H178.388C178.388 27.2177 178.631 26.2947 179.115 25.5107C179.6 24.7266 180.267 24.1194 181.116 23.6893C181.971 23.2591 182.951 23.044 184.057 23.044C185.179 23.044 186.164 23.2537 187.013 23.6729C187.863 24.0922 188.522 24.6667 188.99 25.3963C189.464 26.1259 189.701 26.959 189.701 27.8956C189.701 28.5218 189.581 29.1371 189.341 29.7415C189.102 30.3459 188.68 31.0156 188.075 31.7507C187.476 32.4858 186.635 33.3761 185.551 34.4215L182.668 37.3537V37.468H189.954V40H178.487ZM198.955 40.3185C197.61 40.3185 196.455 39.9782 195.491 39.2976C194.533 38.6115 193.795 37.6232 193.278 36.3327C192.766 35.0368 192.51 33.4768 192.51 31.6527C192.516 29.8286 192.774 28.2768 193.286 26.9972C193.804 25.7121 194.541 24.732 195.5 24.0568C196.463 23.3816 197.615 23.044 198.955 23.044C200.294 23.044 201.446 23.3816 202.409 24.0568C203.373 24.732 204.111 25.7121 204.623 26.9972C205.14 28.2822 205.399 29.834 205.399 31.6527C205.399 33.4822 205.14 35.045 204.623 36.3409C204.111 37.6314 203.373 38.617 202.409 39.2976C201.451 39.9782 200.299 40.3185 198.955 40.3185ZM198.955 37.7621C200 37.7621 200.825 37.2475 201.429 36.2184C202.039 35.1838 202.344 33.6619 202.344 31.6527C202.344 30.3241 202.205 29.2079 201.928 28.304C201.65 27.4001 201.258 26.7195 200.751 26.2621C200.245 25.7992 199.646 25.5678 198.955 25.5678C197.915 25.5678 197.092 26.0851 196.488 27.1197C195.884 28.1488 195.579 29.6598 195.573 31.6527C195.568 32.9867 195.701 34.1084 195.973 35.0178C196.251 35.9271 196.643 36.6132 197.15 37.076C197.656 37.5334 198.258 37.7621 198.955 37.7621ZM208.112 40V37.8111L213.92 32.1183C214.475 31.5574 214.938 31.0592 215.308 30.6236C215.678 30.188 215.956 29.766 216.141 29.3576C216.326 28.9492 216.419 28.5136 216.419 28.0508C216.419 27.5226 216.299 27.0707 216.06 26.695C215.82 26.3138 215.491 26.0198 215.071 25.8129C214.652 25.6059 214.176 25.5025 213.642 25.5025C213.092 25.5025 212.61 25.6168 212.196 25.8455C211.782 26.0688 211.461 26.3873 211.233 26.8011C211.009 27.215 210.898 27.7077 210.898 28.2795H208.014C208.014 27.2177 208.257 26.2947 208.741 25.5107C209.226 24.7266 209.893 24.1194 210.742 23.6893C211.597 23.2591 212.577 23.044 213.683 23.044C214.804 23.044 215.79 23.2537 216.639 23.6729C217.489 24.0922 218.148 24.6667 218.616 25.3963C219.09 26.1259 219.327 26.959 219.327 27.8956C219.327 28.5218 219.207 29.1371 218.967 29.7415C218.728 30.3459 218.306 31.0156 217.701 31.7507C217.102 32.4858 216.261 33.3761 215.177 34.4215L212.294 37.3537V37.468H219.58V40H208.112ZM228.401 40.2287C227.225 40.2287 226.179 40.0272 225.264 39.6243C224.355 39.2214 223.636 38.6605 223.108 37.9418C222.58 37.223 222.3 36.3926 222.267 35.4506H225.338C225.365 35.9026 225.515 36.2973 225.787 36.6349C226.059 36.9671 226.422 37.2257 226.873 37.4109C227.325 37.596 227.832 37.6886 228.393 37.6886C228.992 37.6886 229.523 37.5851 229.985 37.3782C230.448 37.1658 230.81 36.8718 231.072 36.4961C231.333 36.1204 231.461 35.6875 231.456 35.1974C231.461 34.6911 231.33 34.2446 231.063 33.858C230.797 33.4714 230.41 33.1692 229.904 32.9513C229.403 32.7335 228.798 32.6246 228.09 32.6246H226.612V30.2887H228.09C228.673 30.2887 229.182 30.188 229.618 29.9865C230.059 29.785 230.405 29.5019 230.655 29.1371C230.906 28.7668 231.028 28.3394 231.023 27.8548C231.028 27.381 230.922 26.9699 230.704 26.6214C230.492 26.2675 230.19 25.9925 229.797 25.7965C229.411 25.6005 228.956 25.5025 228.434 25.5025C227.922 25.5025 227.448 25.5951 227.012 25.7802C226.577 25.9653 226.226 26.2294 225.959 26.5724C225.692 26.91 225.55 27.313 225.534 27.7812H222.618C222.64 26.8447 222.909 26.0225 223.427 25.3146C223.949 24.6013 224.646 24.0459 225.518 23.6484C226.389 23.2455 227.366 23.044 228.45 23.044C229.566 23.044 230.535 23.2537 231.358 23.6729C232.185 24.0868 232.825 24.6449 233.277 25.3473C233.729 26.0497 233.955 26.8256 233.955 27.6751C233.96 28.6171 233.683 29.4066 233.122 30.0437C232.566 30.6808 231.837 31.0973 230.933 31.2933V31.424C232.109 31.5874 233.01 32.023 233.636 32.7308C234.268 33.4332 234.581 34.3072 234.576 35.3526C234.576 36.2892 234.309 37.1277 233.775 37.8683C233.247 38.6033 232.517 39.1805 231.586 39.5998C230.661 40.0191 229.599 40.2287 228.401 40.2287ZM249.847 23.2727H252.853V35.0341C252.847 36.1122 252.618 37.0406 252.167 37.8192C251.715 38.5924 251.083 39.1887 250.272 39.608C249.466 40.0218 248.527 40.2287 247.454 40.2287C246.474 40.2287 245.592 40.0545 244.808 39.706C244.029 39.352 243.411 38.8293 242.953 38.1378C242.496 37.4463 242.267 36.5859 242.267 35.5568H245.281C245.287 36.0088 245.385 36.3981 245.575 36.7248C245.771 37.0515 246.041 37.302 246.384 37.4762C246.727 37.6504 247.122 37.7376 247.568 37.7376C248.053 37.7376 248.464 37.6368 248.801 37.4354C249.139 37.2285 249.395 36.9235 249.569 36.5206C249.749 36.1177 249.842 35.6222 249.847 35.0341V23.2727ZM264.006 34.7237V27.4545H266.962V40H264.095V37.7702H263.965C263.682 38.4727 263.216 39.0471 262.568 39.4936C261.925 39.9401 261.133 40.1634 260.191 40.1634C259.369 40.1634 258.642 39.9809 258.01 39.6161C257.384 39.2459 256.894 38.7095 256.54 38.0071C256.186 37.2992 256.009 36.4444 256.009 35.4425V27.4545H258.966V34.9851C258.966 35.7801 259.184 36.4117 259.619 36.88C260.055 37.3482 260.627 37.5824 261.335 37.5824C261.77 37.5824 262.192 37.4762 262.601 37.2638C263.009 37.0515 263.344 36.7357 263.605 36.3164C263.872 35.8917 264.006 35.3608 264.006 34.7237ZM272.959 32.6491V40H270.003V27.4545H272.829V29.5863H272.976C273.264 28.8839 273.724 28.3258 274.356 27.9119C274.993 27.4981 275.78 27.2912 276.716 27.2912C277.582 27.2912 278.336 27.4763 278.979 27.8466C279.627 28.2169 280.128 28.7532 280.482 29.4556C280.841 30.158 281.018 31.0102 281.013 32.0121V40H278.056V32.4695C278.056 31.6309 277.838 30.9748 277.402 30.5011C276.972 30.0273 276.376 29.7905 275.614 29.7905C275.096 29.7905 274.636 29.9048 274.233 30.1335C273.836 30.3568 273.523 30.6808 273.294 31.1055C273.071 31.5302 272.959 32.0447 272.959 32.6491Z" fill="#3D7196"/>
<path d="M34.2017 65.5455C34.1122 64.7898 33.7493 64.2031 33.1129 63.7855C32.4766 63.3679 31.696 63.1591 30.7713 63.1591C30.0952 63.1591 29.5036 63.2685 28.9964 63.4872C28.4943 63.706 28.1016 64.0067 27.8182 64.3896C27.5398 64.7724 27.4006 65.2074 27.4006 65.6946C27.4006 66.1023 27.4975 66.4528 27.6914 66.7461C27.8903 67.0344 28.1438 67.2756 28.4521 67.4695C28.7603 67.6584 29.0835 67.815 29.4215 67.9393C29.7596 68.0586 30.0703 68.1555 30.3537 68.2301L31.9048 68.6477C32.3026 68.7521 32.745 68.8963 33.2322 69.0803C33.7244 69.2642 34.1942 69.5153 34.6417 69.8335C35.0941 70.1467 35.467 70.5494 35.7603 71.0415C36.0536 71.5337 36.2003 72.1378 36.2003 72.8537C36.2003 73.679 35.984 74.4247 35.5515 75.0909C35.1239 75.7571 34.4975 76.2866 33.6722 76.6793C32.8519 77.0721 31.8551 77.2685 30.6818 77.2685C29.5881 77.2685 28.641 77.092 27.8406 76.739C27.0451 76.386 26.4187 75.8938 25.9613 75.2624C25.5089 74.631 25.2528 73.8977 25.1932 73.0625H27.1023C27.152 73.6392 27.3459 74.1165 27.6839 74.4943C28.027 74.8672 28.4595 75.1456 28.9815 75.3295C29.5085 75.5085 30.0753 75.598 30.6818 75.598C31.3878 75.598 32.0217 75.4837 32.5835 75.255C33.1452 75.0213 33.5902 74.6982 33.9183 74.2855C34.2464 73.8679 34.4105 73.3807 34.4105 72.8239C34.4105 72.3168 34.2688 71.9041 33.9854 71.5859C33.7021 71.2678 33.3292 71.0092 32.8668 70.8104C32.4045 70.6115 31.9048 70.4375 31.3679 70.2884L29.4886 69.7514C28.2955 69.4084 27.3509 68.9187 26.6548 68.2823C25.9588 67.646 25.6108 66.8132 25.6108 65.7841C25.6108 64.929 25.842 64.1832 26.3043 63.5469C26.7717 62.9055 27.3981 62.4084 28.1836 62.0554C28.9741 61.6974 29.8565 61.5185 30.831 61.5185C31.8153 61.5185 32.6903 61.695 33.456 62.0479C34.2216 62.396 34.8281 62.8732 35.2756 63.4798C35.728 64.0863 35.9666 64.7749 35.9915 65.5455H34.2017ZM46.2211 72.3168V65.5455H47.9811V77H46.2211V75.0611H46.1018C45.8334 75.6428 45.4157 76.1374 44.849 76.5451C44.2822 76.9478 43.5663 77.1491 42.7013 77.1491C41.9854 77.1491 41.349 76.9925 40.7922 76.6793C40.2354 76.3612 39.7979 75.8839 39.4797 75.2475C39.1615 74.6062 39.0024 73.7983 39.0024 72.8239V65.5455H40.7623V72.7045C40.7623 73.5398 40.996 74.206 41.4633 74.7031C41.9356 75.2003 42.5372 75.4489 43.268 75.4489C43.7055 75.4489 44.1505 75.337 44.6029 75.1133C45.0603 74.8896 45.4431 74.5465 45.7513 74.0842C46.0645 73.6218 46.2211 73.0327 46.2211 72.3168ZM52.9645 70.1094V77H51.2045V65.5455H52.9048V67.3352H53.054C53.3224 66.7536 53.7301 66.2862 54.277 65.9332C54.8239 65.5753 55.5298 65.3963 56.3949 65.3963C57.1705 65.3963 57.8491 65.5554 58.4308 65.8736C59.0124 66.1868 59.4648 66.6641 59.788 67.3054C60.1112 67.9418 60.2727 68.7472 60.2727 69.7216V77H58.5128V69.8409C58.5128 68.9411 58.2791 68.2401 57.8118 67.7379C57.3445 67.2308 56.7031 66.9773 55.8878 66.9773C55.326 66.9773 54.8239 67.0991 54.3814 67.3427C53.9439 67.5863 53.5984 67.9418 53.3448 68.4091C53.0913 68.8764 52.9645 69.4432 52.9645 70.1094Z" fill="black"/>
<path d="M88.8494 61.7273H91.0568L96.2472 74.4048H96.4261L101.616 61.7273H103.824V77H102.094V65.3963H101.945L97.1719 77H95.5014L90.7287 65.3963H90.5795V77H88.8494V61.7273ZM111.947 77.2386C110.913 77.2386 110.005 76.9925 109.225 76.5004C108.449 76.0082 107.843 75.3196 107.405 74.4347C106.973 73.5497 106.756 72.5156 106.756 71.3324C106.756 70.1392 106.973 69.0977 107.405 68.2077C107.843 67.3178 108.449 66.6268 109.225 66.1346C110.005 65.6424 110.913 65.3963 111.947 65.3963C112.981 65.3963 113.886 65.6424 114.661 66.1346C115.442 66.6268 116.048 67.3178 116.481 68.2077C116.918 69.0977 117.137 70.1392 117.137 71.3324C117.137 72.5156 116.918 73.5497 116.481 74.4347C116.048 75.3196 115.442 76.0082 114.661 76.5004C113.886 76.9925 112.981 77.2386 111.947 77.2386ZM111.947 75.6577C112.732 75.6577 113.379 75.4563 113.886 75.0536C114.393 74.6509 114.768 74.1214 115.012 73.4652C115.255 72.8089 115.377 72.098 115.377 71.3324C115.377 70.5668 115.255 69.8533 115.012 69.1921C114.768 68.5309 114.393 67.9964 113.886 67.5888C113.379 67.1811 112.732 66.9773 111.947 66.9773C111.161 66.9773 110.515 67.1811 110.008 67.5888C109.501 67.9964 109.125 68.5309 108.882 69.1921C108.638 69.8533 108.516 70.5668 108.516 71.3324C108.516 72.098 108.638 72.8089 108.882 73.4652C109.125 74.1214 109.501 74.6509 110.008 75.0536C110.515 75.4563 111.161 75.6577 111.947 75.6577ZM121.584 70.1094V77H119.824V65.5455H121.524V67.3352H121.673C121.942 66.7536 122.349 66.2862 122.896 65.9332C123.443 65.5753 124.149 65.3963 125.014 65.3963C125.79 65.3963 126.468 65.5554 127.05 65.8736C127.632 66.1868 128.084 66.6641 128.407 67.3054C128.73 67.9418 128.892 68.7472 128.892 69.7216V77H127.132V69.8409C127.132 68.9411 126.898 68.2401 126.431 67.7379C125.964 67.2308 125.322 66.9773 124.507 66.9773C123.945 66.9773 123.443 67.0991 123.001 67.3427C122.563 67.5863 122.218 67.9418 121.964 68.4091C121.71 68.8764 121.584 69.4432 121.584 70.1094Z" fill="black"/>
<path d="M157.014 63.3679V61.7273H168.469V63.3679H163.666V77H161.817V63.3679H157.014ZM176.745 72.3168V65.5455H178.505V77H176.745V75.0611H176.625C176.357 75.6428 175.939 76.1374 175.372 76.5451C174.806 76.9478 174.09 77.1491 173.225 77.1491C172.509 77.1491 171.872 76.9925 171.316 76.6793C170.759 76.3612 170.321 75.8839 170.003 75.2475C169.685 74.6062 169.526 73.7983 169.526 72.8239V65.5455H171.286V72.7045C171.286 73.5398 171.519 74.206 171.987 74.7031C172.459 75.2003 173.061 75.4489 173.791 75.4489C174.229 75.4489 174.674 75.337 175.126 75.1133C175.584 74.8896 175.967 74.5465 176.275 74.0842C176.588 73.6218 176.745 73.0327 176.745 72.3168ZM186.531 77.2386C185.427 77.2386 184.475 76.995 183.674 76.5078C182.879 76.0156 182.265 75.3295 181.832 74.4496C181.405 73.5646 181.191 72.5355 181.191 71.3622C181.191 70.1889 181.405 69.1548 181.832 68.2599C182.265 67.3601 182.866 66.6591 183.637 66.157C184.413 65.6499 185.317 65.3963 186.352 65.3963C186.948 65.3963 187.537 65.4957 188.119 65.6946C188.701 65.8935 189.23 66.2166 189.707 66.6641C190.185 67.1065 190.565 67.6932 190.848 68.424C191.132 69.1548 191.273 70.0547 191.273 71.1236V71.8693H182.444V70.348H189.484C189.484 69.7017 189.354 69.125 189.096 68.6179C188.842 68.1108 188.479 67.7106 188.007 67.4173C187.54 67.1239 186.988 66.9773 186.352 66.9773C185.651 66.9773 185.044 67.1513 184.532 67.4993C184.025 67.8423 183.635 68.2898 183.361 68.8416C183.088 69.3935 182.951 69.9851 182.951 70.6165V71.6307C182.951 72.4957 183.1 73.229 183.398 73.8306C183.702 74.4272 184.122 74.8821 184.659 75.1953C185.196 75.5036 185.82 75.6577 186.531 75.6577C186.993 75.6577 187.411 75.593 187.783 75.4638C188.161 75.3295 188.487 75.1307 188.76 74.8672C189.034 74.5987 189.245 74.2656 189.394 73.8679L191.094 74.3452C190.915 74.9219 190.615 75.429 190.192 75.8665C189.77 76.299 189.248 76.6371 188.626 76.8807C188.005 77.1193 187.306 77.2386 186.531 77.2386Z" fill="black"/>
<path d="M222.624 77L218.447 61.7273H220.327L223.518 74.1662H223.668L226.919 61.7273H229.007L232.259 74.1662H232.408L235.599 61.7273H237.479L233.303 77H231.393L228.023 64.8295H227.903L224.533 77H222.624ZM243.281 77.2386C242.177 77.2386 241.225 76.995 240.424 76.5078C239.629 76.0156 239.015 75.3295 238.582 74.4496C238.155 73.5646 237.941 72.5355 237.941 71.3622C237.941 70.1889 238.155 69.1548 238.582 68.2599C239.015 67.3601 239.616 66.6591 240.387 66.157C241.163 65.6499 242.067 65.3963 243.102 65.3963C243.698 65.3963 244.287 65.4957 244.869 65.6946C245.451 65.8935 245.98 66.2166 246.457 66.6641C246.935 67.1065 247.315 67.6932 247.598 68.424C247.882 69.1548 248.023 70.0547 248.023 71.1236V71.8693H239.194V70.348H246.234C246.234 69.7017 246.104 69.125 245.846 68.6179C245.592 68.1108 245.229 67.7106 244.757 67.4173C244.29 67.1239 243.738 66.9773 243.102 66.9773C242.401 66.9773 241.794 67.1513 241.282 67.4993C240.775 67.8423 240.385 68.2898 240.111 68.8416C239.838 69.3935 239.701 69.9851 239.701 70.6165V71.6307C239.701 72.4957 239.85 73.229 240.148 73.8306C240.452 74.4272 240.872 74.8821 241.409 75.1953C241.946 75.5036 242.57 75.6577 243.281 75.6577C243.743 75.6577 244.161 75.593 244.533 75.4638C244.911 75.3295 245.237 75.1307 245.51 74.8672C245.784 74.5987 245.995 74.2656 246.144 73.8679L247.844 74.3452C247.665 74.9219 247.365 75.429 246.942 75.8665C246.52 76.299 245.998 76.6371 245.376 76.8807C244.755 77.1193 244.056 77.2386 243.281 77.2386ZM255.026 77.2386C254.071 77.2386 253.229 76.9975 252.498 76.5153C251.767 76.0281 251.195 75.342 250.783 74.457C250.37 73.5671 250.164 72.5156 250.164 71.3026C250.164 70.0994 250.37 69.0554 250.783 68.1705C251.195 67.2855 251.77 66.6019 252.505 66.1197C253.241 65.6374 254.091 65.3963 255.056 65.3963C255.801 65.3963 256.391 65.5206 256.823 65.7692C257.261 66.0128 257.594 66.2912 257.822 66.6044C258.056 66.9126 258.238 67.1662 258.367 67.3651H258.516V61.7273H260.276V77H258.576V75.2401H258.367C258.238 75.4489 258.054 75.7124 257.815 76.0305C257.576 76.3437 257.236 76.6246 256.793 76.8732C256.351 77.1168 255.762 77.2386 255.026 77.2386ZM255.265 75.6577C255.971 75.6577 256.567 75.4737 257.054 75.1058C257.542 74.733 257.912 74.2184 258.165 73.5621C258.419 72.9009 258.546 72.1378 258.546 71.2727C258.546 70.4176 258.422 69.6694 258.173 69.0281C257.924 68.3817 257.556 67.8796 257.069 67.5217C256.582 67.1587 255.98 66.9773 255.265 66.9773C254.519 66.9773 253.897 67.1687 253.4 67.5515C252.908 67.9293 252.538 68.4439 252.289 69.0952C252.045 69.7415 251.924 70.4673 251.924 71.2727C251.924 72.0881 252.048 72.8288 252.297 73.495C252.55 74.1562 252.923 74.6832 253.415 75.076C253.912 75.4638 254.529 75.6577 255.265 75.6577Z" fill="black"/>
<path d="M289.014 63.3679V61.7273H300.469V63.3679H295.666V77H293.817V63.3679H289.014ZM304.844 70.1094V77H303.084V61.7273H304.844V67.3352H304.994C305.262 66.7436 305.665 66.2738 306.202 65.9258C306.744 65.5728 307.464 65.3963 308.364 65.3963C309.145 65.3963 309.828 65.5529 310.415 65.8661C311.002 66.1744 311.457 66.6491 311.78 67.2905C312.108 67.9268 312.272 68.7372 312.272 69.7216V77H310.512V69.8409C310.512 68.9311 310.276 68.2276 309.804 67.7305C309.336 67.2283 308.687 66.9773 307.857 66.9773C307.28 66.9773 306.763 67.0991 306.306 67.3427C305.854 67.5863 305.496 67.9418 305.232 68.4091C304.974 68.8764 304.844 69.4432 304.844 70.1094ZM322.71 72.3168V65.5455H324.47V77H322.71V75.0611H322.591C322.323 75.6428 321.905 76.1374 321.338 76.5451C320.771 76.9478 320.056 77.1491 319.191 77.1491C318.475 77.1491 317.838 76.9925 317.281 76.6793C316.725 76.3612 316.287 75.8839 315.969 75.2475C315.651 74.6062 315.492 73.7983 315.492 72.8239V65.5455H317.252V72.7045C317.252 73.5398 317.485 74.206 317.953 74.7031C318.425 75.2003 319.026 75.4489 319.757 75.4489C320.195 75.4489 320.64 75.337 321.092 75.1133C321.55 74.8896 321.932 74.5465 322.241 74.0842C322.554 73.6218 322.71 73.0327 322.71 72.3168Z" fill="black"/>
<path d="M353.849 77V61.7273H363.007V63.3679H355.699V68.5284H362.321V70.169H355.699V77H353.849ZM365.813 77V65.5455H367.513V67.2756H367.633C367.841 66.7088 368.219 66.2489 368.766 65.896C369.313 65.543 369.929 65.3665 370.616 65.3665C370.745 65.3665 370.906 65.369 371.1 65.3739C371.294 65.3789 371.441 65.3864 371.54 65.3963V67.1861C371.481 67.1712 371.344 67.1488 371.13 67.119C370.921 67.0842 370.7 67.0668 370.466 67.0668C369.91 67.0668 369.412 67.1836 368.975 67.4173C368.542 67.646 368.199 67.9641 367.946 68.3718C367.697 68.7745 367.573 69.2344 367.573 69.7514V77H365.813ZM373.626 77V65.5455H375.386V77H373.626ZM374.521 63.6364C374.178 63.6364 373.882 63.5195 373.634 63.2859C373.39 63.0522 373.268 62.7713 373.268 62.4432C373.268 62.1151 373.39 61.8342 373.634 61.6005C373.882 61.3668 374.178 61.25 374.521 61.25C374.864 61.25 375.158 61.3668 375.401 61.6005C375.65 61.8342 375.774 62.1151 375.774 62.4432C375.774 62.7713 375.65 63.0522 375.401 63.2859C375.158 63.5195 374.864 63.6364 374.521 63.6364Z" fill="black"/>
<path d="M412.202 65.5455C412.112 64.7898 411.749 64.2031 411.113 63.7855C410.477 63.3679 409.696 63.1591 408.771 63.1591C408.095 63.1591 407.504 63.2685 406.996 63.4872C406.494 63.706 406.102 64.0067 405.818 64.3896C405.54 64.7724 405.401 65.2074 405.401 65.6946C405.401 66.1023 405.498 66.4528 405.691 66.7461C405.89 67.0344 406.144 67.2756 406.452 67.4695C406.76 67.6584 407.083 67.815 407.422 67.9393C407.76 68.0586 408.07 68.1555 408.354 68.2301L409.905 68.6477C410.303 68.7521 410.745 68.8963 411.232 69.0803C411.724 69.2642 412.194 69.5153 412.642 69.8335C413.094 70.1467 413.467 70.5494 413.76 71.0415C414.054 71.5337 414.2 72.1378 414.2 72.8537C414.2 73.679 413.984 74.4247 413.551 75.0909C413.124 75.7571 412.498 76.2866 411.672 76.6793C410.852 77.0721 409.855 77.2685 408.682 77.2685C407.588 77.2685 406.641 77.092 405.841 76.739C405.045 76.386 404.419 75.8938 403.961 75.2624C403.509 74.631 403.253 73.8977 403.193 73.0625H405.102C405.152 73.6392 405.346 74.1165 405.684 74.4943C406.027 74.8672 406.46 75.1456 406.982 75.3295C407.509 75.5085 408.075 75.598 408.682 75.598C409.388 75.598 410.022 75.4837 410.583 75.255C411.145 75.0213 411.59 74.6982 411.918 74.2855C412.246 73.8679 412.411 73.3807 412.411 72.8239C412.411 72.3168 412.269 71.9041 411.985 71.5859C411.702 71.2678 411.329 71.0092 410.867 70.8104C410.404 70.6115 409.905 70.4375 409.368 70.2884L407.489 69.7514C406.295 69.4084 405.351 68.9187 404.655 68.2823C403.959 67.646 403.611 66.8132 403.611 65.7841C403.611 64.929 403.842 64.1832 404.304 63.5469C404.772 62.9055 405.398 62.4084 406.184 62.0554C406.974 61.6974 407.857 61.5185 408.831 61.5185C409.815 61.5185 410.69 61.695 411.456 62.0479C412.222 62.396 412.828 62.8732 413.276 63.4798C413.728 64.0863 413.967 64.7749 413.991 65.5455H412.202ZM420.373 77.2685C419.647 77.2685 418.989 77.1317 418.397 76.8583C417.805 76.5799 417.335 76.1797 416.987 75.6577C416.639 75.1307 416.465 74.4943 416.465 73.7486C416.465 73.0923 416.595 72.5604 416.853 72.1527C417.112 71.7401 417.457 71.4169 417.89 71.1832C418.322 70.9496 418.8 70.7756 419.322 70.6612C419.849 70.5419 420.378 70.4474 420.91 70.3778C421.606 70.2884 422.17 70.2212 422.603 70.1765C423.04 70.1268 423.359 70.0447 423.557 69.9304C423.761 69.8161 423.863 69.6172 423.863 69.3338V69.2741C423.863 68.5384 423.662 67.9666 423.259 67.5589C422.861 67.1513 422.257 66.9474 421.447 66.9474C420.607 66.9474 419.948 67.1314 419.471 67.4993C418.994 67.8672 418.658 68.2599 418.464 68.6776L416.794 68.081C417.092 67.3849 417.49 66.843 417.987 66.4553C418.489 66.0625 419.036 65.7891 419.627 65.6349C420.224 65.4759 420.811 65.3963 421.387 65.3963C421.755 65.3963 422.178 65.4411 422.655 65.5305C423.137 65.6151 423.602 65.7915 424.05 66.06C424.502 66.3285 424.877 66.7337 425.176 67.2756C425.474 67.8175 425.623 68.5433 425.623 69.4531V77H423.863V75.4489H423.774C423.654 75.6974 423.456 75.9634 423.177 76.2468C422.899 76.5302 422.528 76.7713 422.066 76.9702C421.604 77.169 421.039 77.2685 420.373 77.2685ZM420.642 75.6875C421.338 75.6875 421.924 75.5508 422.402 75.2773C422.884 75.0039 423.247 74.6509 423.49 74.2184C423.739 73.7859 423.863 73.331 423.863 72.8537V71.2429C423.789 71.3324 423.625 71.4144 423.371 71.489C423.122 71.5586 422.834 71.6207 422.506 71.6754C422.183 71.7251 421.867 71.7699 421.559 71.8097C421.256 71.8445 421.009 71.8743 420.821 71.8991C420.363 71.9588 419.936 72.0558 419.538 72.19C419.145 72.3192 418.827 72.5156 418.583 72.7791C418.345 73.0376 418.225 73.3906 418.225 73.8381C418.225 74.4496 418.452 74.9119 418.904 75.2251C419.361 75.5334 419.941 75.6875 420.642 75.6875ZM433.817 65.5455V67.0369H427.881V65.5455H433.817ZM429.611 62.8011H431.371V73.7188C431.371 74.2159 431.443 74.5888 431.587 74.8374C431.736 75.081 431.925 75.245 432.154 75.3295C432.388 75.4091 432.634 75.4489 432.892 75.4489C433.086 75.4489 433.245 75.4389 433.369 75.419C433.494 75.3942 433.593 75.3743 433.668 75.3594L434.026 76.9403C433.906 76.9851 433.74 77.0298 433.526 77.0746C433.312 77.1243 433.041 77.1491 432.713 77.1491C432.216 77.1491 431.729 77.0423 431.252 76.8285C430.779 76.6147 430.387 76.2891 430.073 75.8516C429.765 75.4141 429.611 74.8622 429.611 74.196V62.8011Z" fill="black"/>
<circle cx="421" cy="183" r="15" fill="#1976D2"/>
<path d="M31.0341 149V147.477L35.0739 143.517C35.4602 143.127 35.7822 142.78 36.0398 142.477C36.2973 142.174 36.4905 141.881 36.6193 141.597C36.7481 141.312 36.8125 141.009 36.8125 140.688C36.8125 140.32 36.7292 140.006 36.5625 139.744C36.3958 139.479 36.1667 139.275 35.875 139.131C35.5833 138.987 35.2519 138.915 34.8807 138.915C34.4981 138.915 34.1629 138.994 33.875 139.153C33.5871 139.309 33.3636 139.53 33.2045 139.818C33.0492 140.106 32.9716 140.449 32.9716 140.847H30.9659C30.9659 140.108 31.1345 139.466 31.4716 138.92C31.8087 138.375 32.2727 137.953 32.8636 137.653C33.4583 137.354 34.1402 137.205 34.9091 137.205C35.6894 137.205 36.375 137.35 36.9659 137.642C37.5568 137.934 38.0152 138.333 38.3409 138.841C38.6705 139.348 38.8352 139.928 38.8352 140.58C38.8352 141.015 38.7519 141.443 38.5852 141.864C38.4186 142.284 38.125 142.75 37.7045 143.261C37.2879 143.773 36.7027 144.392 35.9489 145.119L33.9432 147.159V147.239H39.0114V149H31.0341ZM45.0114 137.205C45.5682 137.208 46.1098 137.307 46.6364 137.5C47.1667 137.689 47.6439 138 48.0682 138.432C48.4924 138.86 48.8295 139.434 49.0795 140.153C49.3295 140.873 49.4545 141.763 49.4545 142.824C49.4583 143.824 49.3523 144.718 49.1364 145.506C48.9242 146.29 48.6193 146.953 48.2216 147.494C47.8239 148.036 47.3447 148.449 46.7841 148.733C46.2235 149.017 45.5928 149.159 44.892 149.159C44.1572 149.159 43.5057 149.015 42.9375 148.727C42.3731 148.439 41.9167 148.045 41.5682 147.545C41.2197 147.045 41.0057 146.473 40.9261 145.83H43C43.1061 146.292 43.322 146.659 43.6477 146.932C43.9773 147.201 44.392 147.335 44.892 147.335C45.6989 147.335 46.3201 146.985 46.7557 146.284C47.1913 145.583 47.4091 144.61 47.4091 143.364H47.3295C47.1439 143.697 46.9034 143.985 46.608 144.227C46.3125 144.466 45.9773 144.65 45.6023 144.778C45.2311 144.907 44.8371 144.972 44.4205 144.972C43.7386 144.972 43.125 144.809 42.5795 144.483C42.0379 144.157 41.608 143.71 41.2898 143.142C40.9754 142.574 40.8163 141.924 40.8125 141.193C40.8125 140.436 40.9867 139.756 41.3352 139.153C41.6875 138.547 42.178 138.07 42.8068 137.722C43.4356 137.369 44.1705 137.197 45.0114 137.205ZM45.017 138.909C44.608 138.909 44.2386 139.009 43.9091 139.21C43.5833 139.407 43.3258 139.676 43.1364 140.017C42.9508 140.354 42.858 140.731 42.858 141.148C42.8617 141.561 42.9545 141.936 43.1364 142.273C43.322 142.61 43.5739 142.877 43.892 143.074C44.214 143.271 44.5814 143.369 44.9943 143.369C45.3011 143.369 45.5871 143.311 45.8523 143.193C46.1174 143.076 46.3485 142.913 46.5455 142.705C46.7462 142.492 46.9015 142.252 47.0114 141.983C47.125 141.714 47.1799 141.43 47.1761 141.131C47.1761 140.733 47.0814 140.366 46.892 140.028C46.7064 139.691 46.4508 139.42 46.125 139.216C45.803 139.011 45.4337 138.909 45.017 138.909ZM95.2102 149.159C94.392 149.159 93.6648 149.019 93.0284 148.739C92.3958 148.458 91.8958 148.068 91.5284 147.568C91.161 147.068 90.9659 146.491 90.9432 145.835H93.0795C93.0985 146.15 93.2027 146.424 93.392 146.659C93.5814 146.89 93.8333 147.07 94.1477 147.199C94.4621 147.328 94.8144 147.392 95.2045 147.392C95.6212 147.392 95.9905 147.32 96.3125 147.176C96.6345 147.028 96.8864 146.824 97.0682 146.562C97.25 146.301 97.339 146 97.3352 145.659C97.339 145.307 97.2481 144.996 97.0625 144.727C96.8769 144.458 96.608 144.248 96.2557 144.097C95.9072 143.945 95.4867 143.869 94.9943 143.869H93.9659V142.244H94.9943C95.3996 142.244 95.7538 142.174 96.0568 142.034C96.3636 141.894 96.6042 141.697 96.7784 141.443C96.9527 141.186 97.0379 140.888 97.0341 140.551C97.0379 140.222 96.964 139.936 96.8125 139.693C96.6648 139.447 96.4545 139.256 96.1818 139.119C95.9129 138.983 95.5966 138.915 95.233 138.915C94.8769 138.915 94.5473 138.979 94.2443 139.108C93.9413 139.237 93.697 139.42 93.5114 139.659C93.3258 139.894 93.2273 140.174 93.2159 140.5H91.1875C91.2027 139.848 91.3902 139.277 91.75 138.784C92.1136 138.288 92.5985 137.902 93.2045 137.625C93.8106 137.345 94.4905 137.205 95.2443 137.205C96.0208 137.205 96.6951 137.35 97.267 137.642C97.8428 137.93 98.2879 138.318 98.6023 138.807C98.9167 139.295 99.0739 139.835 99.0739 140.426C99.0777 141.081 98.8845 141.631 98.4943 142.074C98.108 142.517 97.6004 142.807 96.9716 142.943V143.034C97.7898 143.148 98.4167 143.451 98.8523 143.943C99.2917 144.432 99.5095 145.04 99.5057 145.767C99.5057 146.419 99.3201 147.002 98.9489 147.517C98.5814 148.028 98.0739 148.43 97.4261 148.722C96.7822 149.013 96.0436 149.159 95.2102 149.159ZM105.757 149.222C104.821 149.222 104.018 148.985 103.348 148.511C102.681 148.034 102.168 147.347 101.808 146.449C101.452 145.547 101.274 144.462 101.274 143.193C101.278 141.924 101.458 140.845 101.814 139.955C102.174 139.061 102.687 138.379 103.354 137.909C104.024 137.439 104.825 137.205 105.757 137.205C106.689 137.205 107.49 137.439 108.161 137.909C108.831 138.379 109.344 139.061 109.7 139.955C110.06 140.848 110.24 141.928 110.24 143.193C110.24 144.466 110.06 145.553 109.7 146.455C109.344 147.352 108.831 148.038 108.161 148.511C107.494 148.985 106.693 149.222 105.757 149.222ZM105.757 147.443C106.484 147.443 107.058 147.085 107.479 146.369C107.903 145.65 108.115 144.591 108.115 143.193C108.115 142.269 108.018 141.492 107.825 140.864C107.632 140.235 107.359 139.761 107.007 139.443C106.655 139.121 106.238 138.96 105.757 138.96C105.034 138.96 104.462 139.32 104.041 140.04C103.621 140.756 103.409 141.807 103.405 143.193C103.401 144.121 103.494 144.902 103.683 145.534C103.876 146.167 104.149 146.644 104.501 146.966C104.854 147.284 105.272 147.443 105.757 147.443ZM163.929 149.159C163.111 149.159 162.384 149.019 161.747 148.739C161.115 148.458 160.615 148.068 160.247 147.568C159.88 147.068 159.685 146.491 159.662 145.835H161.798C161.817 146.15 161.921 146.424 162.111 146.659C162.3 146.89 162.552 147.07 162.866 147.199C163.181 147.328 163.533 147.392 163.923 147.392C164.34 147.392 164.709 147.32 165.031 147.176C165.353 147.028 165.605 146.824 165.787 146.562C165.969 146.301 166.058 146 166.054 145.659C166.058 145.307 165.967 144.996 165.781 144.727C165.596 144.458 165.327 144.248 164.974 144.097C164.626 143.945 164.205 143.869 163.713 143.869H162.685V142.244H163.713C164.118 142.244 164.473 142.174 164.776 142.034C165.082 141.894 165.323 141.697 165.497 141.443C165.671 141.186 165.757 140.888 165.753 140.551C165.757 140.222 165.683 139.936 165.531 139.693C165.384 139.447 165.173 139.256 164.901 139.119C164.632 138.983 164.315 138.915 163.952 138.915C163.596 138.915 163.266 138.979 162.963 139.108C162.66 139.237 162.416 139.42 162.23 139.659C162.045 139.894 161.946 140.174 161.935 140.5H159.906C159.921 139.848 160.109 139.277 160.469 138.784C160.832 138.288 161.317 137.902 161.923 137.625C162.529 137.345 163.209 137.205 163.963 137.205C164.74 137.205 165.414 137.35 165.986 137.642C166.562 137.93 167.007 138.318 167.321 138.807C167.635 139.295 167.793 139.835 167.793 140.426C167.796 141.081 167.603 141.631 167.213 142.074C166.827 142.517 166.319 142.807 165.69 142.943V143.034C166.509 143.148 167.135 143.451 167.571 143.943C168.01 144.432 168.228 145.04 168.224 145.767C168.224 146.419 168.039 147.002 167.668 147.517C167.3 148.028 166.793 148.43 166.145 148.722C165.501 149.013 164.762 149.159 163.929 149.159ZM174.908 137.364V149H172.8V139.415H172.732L170.01 141.153V139.222L172.902 137.364H174.908ZM230.611 293.364V305H228.503V295.415H228.435L225.713 297.153V295.222L228.605 293.364H230.611ZM297.065 305V303.477L301.105 299.517C301.491 299.127 301.813 298.78 302.071 298.477C302.329 298.174 302.522 297.881 302.651 297.597C302.779 297.312 302.844 297.009 302.844 296.688C302.844 296.32 302.76 296.006 302.594 295.744C302.427 295.479 302.198 295.275 301.906 295.131C301.615 294.987 301.283 294.915 300.912 294.915C300.529 294.915 300.194 294.994 299.906 295.153C299.618 295.309 299.395 295.53 299.236 295.818C299.08 296.106 299.003 296.449 299.003 296.847H296.997C296.997 296.108 297.166 295.466 297.503 294.92C297.84 294.375 298.304 293.953 298.895 293.653C299.49 293.354 300.171 293.205 300.94 293.205C301.721 293.205 302.406 293.35 302.997 293.642C303.588 293.934 304.046 294.333 304.372 294.841C304.702 295.348 304.866 295.928 304.866 296.58C304.866 297.015 304.783 297.443 304.616 297.864C304.45 298.284 304.156 298.75 303.736 299.261C303.319 299.773 302.734 300.392 301.98 301.119L299.974 303.159V303.239H305.043V305H297.065ZM358.804 305.159C357.986 305.159 357.259 305.019 356.622 304.739C355.99 304.458 355.49 304.068 355.122 303.568C354.755 303.068 354.56 302.491 354.537 301.835H356.673C356.692 302.15 356.796 302.424 356.986 302.659C357.175 302.89 357.427 303.07 357.741 303.199C358.056 303.328 358.408 303.392 358.798 303.392C359.215 303.392 359.584 303.32 359.906 303.176C360.228 303.028 360.48 302.824 360.662 302.562C360.844 302.301 360.933 302 360.929 301.659C360.933 301.307 360.842 300.996 360.656 300.727C360.471 300.458 360.202 300.248 359.849 300.097C359.501 299.945 359.08 299.869 358.588 299.869H357.56V298.244H358.588C358.993 298.244 359.348 298.174 359.651 298.034C359.957 297.894 360.198 297.697 360.372 297.443C360.546 297.186 360.632 296.888 360.628 296.551C360.632 296.222 360.558 295.936 360.406 295.693C360.259 295.447 360.048 295.256 359.776 295.119C359.507 294.983 359.19 294.915 358.827 294.915C358.471 294.915 358.141 294.979 357.838 295.108C357.535 295.237 357.291 295.42 357.105 295.659C356.92 295.894 356.821 296.174 356.81 296.5H354.781C354.796 295.848 354.984 295.277 355.344 294.784C355.707 294.288 356.192 293.902 356.798 293.625C357.404 293.345 358.084 293.205 358.838 293.205C359.615 293.205 360.289 293.35 360.861 293.642C361.437 293.93 361.882 294.318 362.196 294.807C362.51 295.295 362.668 295.835 362.668 296.426C362.671 297.081 362.478 297.631 362.088 298.074C361.702 298.517 361.194 298.807 360.565 298.943V299.034C361.384 299.148 362.01 299.451 362.446 299.943C362.885 300.432 363.103 301.04 363.099 301.767C363.099 302.419 362.914 303.002 362.543 303.517C362.175 304.028 361.668 304.43 361.02 304.722C360.376 305.013 359.637 305.159 358.804 305.159ZM412.464 302.841V301.165L417.402 293.364H418.8V295.75H417.947L414.624 301.017V301.108H421.516V302.841H412.464ZM418.016 305V302.33L418.038 301.58V293.364H420.027V305H418.016Z" fill="#716E6E"/>
<path d="M234.189 137.364V149H232.081V139.415H232.013L229.291 141.153V139.222L232.183 137.364H234.189ZM296.675 149V147.477L300.714 143.517C301.101 143.127 301.423 142.78 301.68 142.477C301.938 142.174 302.131 141.881 302.26 141.597C302.389 141.312 302.453 141.009 302.453 140.688C302.453 140.32 302.37 140.006 302.203 139.744C302.036 139.479 301.807 139.275 301.516 139.131C301.224 138.987 300.893 138.915 300.521 138.915C300.139 138.915 299.804 138.994 299.516 139.153C299.228 139.309 299.004 139.53 298.845 139.818C298.69 140.106 298.612 140.449 298.612 140.847H296.607C296.607 140.108 296.775 139.466 297.112 138.92C297.449 138.375 297.913 137.953 298.504 137.653C299.099 137.354 299.781 137.205 300.55 137.205C301.33 137.205 302.016 137.35 302.607 137.642C303.197 137.934 303.656 138.333 303.982 138.841C304.311 139.348 304.476 139.928 304.476 140.58C304.476 141.015 304.393 141.443 304.226 141.864C304.059 142.284 303.766 142.75 303.345 143.261C302.929 143.773 302.343 144.392 301.589 145.119L299.584 147.159V147.239H304.652V149H296.675ZM358.413 149.159C357.595 149.159 356.868 149.019 356.232 148.739C355.599 148.458 355.099 148.068 354.732 147.568C354.364 147.068 354.169 146.491 354.146 145.835H356.283C356.302 146.15 356.406 146.424 356.595 146.659C356.785 146.89 357.036 147.07 357.351 147.199C357.665 147.328 358.018 147.392 358.408 147.392C358.824 147.392 359.194 147.32 359.516 147.176C359.838 147.028 360.089 146.824 360.271 146.562C360.453 146.301 360.542 146 360.538 145.659C360.542 145.307 360.451 144.996 360.266 144.727C360.08 144.458 359.811 144.248 359.459 144.097C359.11 143.945 358.69 143.869 358.197 143.869H357.169V142.244H358.197C358.603 142.244 358.957 142.174 359.26 142.034C359.567 141.894 359.807 141.697 359.982 141.443C360.156 141.186 360.241 140.888 360.237 140.551C360.241 140.222 360.167 139.936 360.016 139.693C359.868 139.447 359.658 139.256 359.385 139.119C359.116 138.983 358.8 138.915 358.436 138.915C358.08 138.915 357.75 138.979 357.447 139.108C357.144 139.237 356.9 139.42 356.714 139.659C356.529 139.894 356.43 140.174 356.419 140.5H354.391C354.406 139.848 354.593 139.277 354.953 138.784C355.317 138.288 355.802 137.902 356.408 137.625C357.014 137.345 357.694 137.205 358.447 137.205C359.224 137.205 359.898 137.35 360.47 137.642C361.046 137.93 361.491 138.318 361.805 138.807C362.12 139.295 362.277 139.835 362.277 140.426C362.281 141.081 362.088 141.631 361.697 142.074C361.311 142.517 360.804 142.807 360.175 142.943V143.034C360.993 143.148 361.62 143.451 362.055 143.943C362.495 144.432 362.713 145.04 362.709 145.767C362.709 146.419 362.523 147.002 362.152 147.517C361.785 148.028 361.277 148.43 360.629 148.722C359.985 149.013 359.247 149.159 358.413 149.159ZM416.043 146.841V145.165L420.98 137.364H422.378V139.75H421.526L418.202 145.017V145.108H425.094V146.841H416.043ZM421.594 149V146.33L421.616 145.58V137.364H423.605V149H421.594ZM43.017 188.159C42.2595 188.159 41.5814 188.017 40.983 187.733C40.3845 187.445 39.9091 187.051 39.5568 186.551C39.2083 186.051 39.0227 185.479 39 184.835H41.0455C41.0833 185.312 41.2898 185.703 41.6648 186.006C42.0398 186.305 42.4905 186.455 43.017 186.455C43.4299 186.455 43.7973 186.36 44.1193 186.17C44.4413 185.981 44.6951 185.718 44.8807 185.381C45.0663 185.044 45.1572 184.659 45.1534 184.227C45.1572 183.788 45.0644 183.398 44.875 183.057C44.6856 182.716 44.4261 182.449 44.0966 182.256C43.767 182.059 43.3883 181.96 42.9602 181.96C42.6117 181.956 42.2689 182.021 41.9318 182.153C41.5947 182.286 41.3277 182.46 41.1307 182.676L39.2273 182.364L39.8352 176.364H46.5852V178.125H41.5795L41.2443 181.21H41.3125C41.5284 180.956 41.8333 180.746 42.2273 180.58C42.6212 180.409 43.053 180.324 43.5227 180.324C44.2273 180.324 44.8561 180.491 45.4091 180.824C45.9621 181.153 46.3977 181.608 46.7159 182.188C47.0341 182.767 47.1932 183.43 47.1932 184.176C47.1932 184.945 47.0152 185.631 46.6591 186.233C46.3068 186.831 45.8163 187.303 45.1875 187.648C44.5625 187.989 43.839 188.159 43.017 188.159ZM100.983 188.159C100.426 188.155 99.8826 188.059 99.3523 187.869C98.822 187.676 98.3447 187.364 97.9205 186.932C97.4962 186.496 97.1591 185.919 96.9091 185.199C96.6591 184.475 96.536 183.58 96.5398 182.511C96.5398 181.515 96.6458 180.627 96.858 179.847C97.0701 179.066 97.375 178.407 97.7727 177.869C98.1705 177.328 98.6496 176.915 99.2102 176.631C99.7746 176.347 100.405 176.205 101.102 176.205C101.833 176.205 102.481 176.348 103.045 176.636C103.614 176.924 104.072 177.318 104.42 177.818C104.769 178.314 104.985 178.875 105.068 179.5H102.994C102.888 179.053 102.67 178.697 102.341 178.432C102.015 178.163 101.602 178.028 101.102 178.028C100.295 178.028 99.6742 178.379 99.2386 179.08C98.8068 179.78 98.589 180.742 98.5852 181.966H98.6648C98.8504 181.633 99.0909 181.347 99.3864 181.108C99.6818 180.869 100.015 180.686 100.386 180.557C100.761 180.424 101.157 180.358 101.574 180.358C102.256 180.358 102.867 180.521 103.409 180.847C103.955 181.172 104.386 181.621 104.705 182.193C105.023 182.761 105.18 183.413 105.176 184.148C105.18 184.913 105.006 185.6 104.653 186.21C104.301 186.816 103.811 187.294 103.182 187.642C102.553 187.991 101.82 188.163 100.983 188.159ZM100.972 186.455C101.384 186.455 101.754 186.354 102.08 186.153C102.405 185.953 102.663 185.682 102.852 185.341C103.042 185 103.134 184.617 103.131 184.193C103.134 183.777 103.044 183.4 102.858 183.062C102.676 182.725 102.424 182.458 102.102 182.261C101.78 182.064 101.413 181.966 101 181.966C100.693 181.966 100.407 182.025 100.142 182.142C99.8769 182.259 99.6458 182.422 99.4489 182.631C99.2519 182.835 99.0966 183.074 98.983 183.347C98.8731 183.616 98.8163 183.903 98.8125 184.21C98.8163 184.616 98.911 184.989 99.0966 185.33C99.2822 185.67 99.5379 185.943 99.8636 186.148C100.189 186.352 100.559 186.455 100.972 186.455ZM163.085 188L168.034 178.205V178.125H162.29V176.364H170.216V178.165L165.273 188H163.085ZM227.78 188.159C226.935 188.159 226.185 188.017 225.53 187.733C224.878 187.449 224.367 187.061 223.996 186.568C223.628 186.072 223.446 185.509 223.45 184.881C223.446 184.392 223.553 183.943 223.768 183.534C223.984 183.125 224.276 182.784 224.643 182.511C225.015 182.235 225.428 182.059 225.882 181.983V181.903C225.284 181.771 224.799 181.466 224.428 180.989C224.06 180.508 223.878 179.953 223.882 179.324C223.878 178.725 224.045 178.191 224.382 177.722C224.719 177.252 225.181 176.883 225.768 176.614C226.356 176.341 227.026 176.205 227.78 176.205C228.526 176.205 229.191 176.341 229.774 176.614C230.361 176.883 230.823 177.252 231.161 177.722C231.501 178.191 231.672 178.725 231.672 179.324C231.672 179.953 231.484 180.508 231.109 180.989C230.738 181.466 230.259 181.771 229.672 181.903V181.983C230.126 182.059 230.536 182.235 230.899 182.511C231.267 182.784 231.558 183.125 231.774 183.534C231.994 183.943 232.104 184.392 232.104 184.881C232.104 185.509 231.918 186.072 231.547 186.568C231.176 187.061 230.664 187.449 230.013 187.733C229.365 188.017 228.621 188.159 227.78 188.159ZM227.78 186.534C228.215 186.534 228.594 186.46 228.916 186.312C229.238 186.161 229.488 185.949 229.666 185.676C229.844 185.403 229.935 185.089 229.939 184.733C229.935 184.362 229.839 184.034 229.649 183.75C229.464 183.462 229.208 183.237 228.882 183.074C228.56 182.911 228.193 182.83 227.78 182.83C227.363 182.83 226.992 182.911 226.666 183.074C226.34 183.237 226.083 183.462 225.893 183.75C225.708 184.034 225.617 184.362 225.621 184.733C225.617 185.089 225.704 185.403 225.882 185.676C226.06 185.945 226.31 186.155 226.632 186.307C226.958 186.458 227.34 186.534 227.78 186.534ZM227.78 181.233C228.136 181.233 228.45 181.161 228.723 181.017C229 180.873 229.217 180.672 229.376 180.415C229.536 180.157 229.617 179.86 229.621 179.523C229.617 179.189 229.537 178.898 229.382 178.648C229.227 178.394 229.011 178.199 228.734 178.062C228.458 177.922 228.14 177.852 227.78 177.852C227.412 177.852 227.089 177.922 226.808 178.062C226.532 178.199 226.316 178.394 226.161 178.648C226.009 178.898 225.935 179.189 225.939 179.523C225.935 179.86 226.011 180.157 226.166 180.415C226.325 180.669 226.543 180.869 226.82 181.017C227.1 181.161 227.42 181.233 227.78 181.233ZM297.543 176.205C298.099 176.208 298.641 176.307 299.168 176.5C299.698 176.689 300.175 177 300.599 177.432C301.024 177.86 301.361 178.434 301.611 179.153C301.861 179.873 301.986 180.763 301.986 181.824C301.99 182.824 301.884 183.718 301.668 184.506C301.455 185.29 301.151 185.953 300.753 186.494C300.355 187.036 299.876 187.449 299.315 187.733C298.755 188.017 298.124 188.159 297.423 188.159C296.688 188.159 296.037 188.015 295.469 187.727C294.904 187.439 294.448 187.045 294.099 186.545C293.751 186.045 293.537 185.473 293.457 184.83H295.531C295.637 185.292 295.853 185.659 296.179 185.932C296.509 186.201 296.923 186.335 297.423 186.335C298.23 186.335 298.851 185.985 299.287 185.284C299.723 184.583 299.94 183.61 299.94 182.364H299.861C299.675 182.697 299.435 182.985 299.139 183.227C298.844 183.466 298.509 183.65 298.134 183.778C297.762 183.907 297.368 183.972 296.952 183.972C296.27 183.972 295.656 183.809 295.111 183.483C294.569 183.157 294.139 182.71 293.821 182.142C293.507 181.574 293.348 180.924 293.344 180.193C293.344 179.436 293.518 178.756 293.866 178.153C294.219 177.547 294.709 177.07 295.338 176.722C295.967 176.369 296.702 176.197 297.543 176.205ZM297.548 177.909C297.139 177.909 296.77 178.009 296.44 178.21C296.115 178.407 295.857 178.676 295.668 179.017C295.482 179.354 295.389 179.731 295.389 180.148C295.393 180.561 295.486 180.936 295.668 181.273C295.853 181.61 296.105 181.877 296.423 182.074C296.745 182.271 297.113 182.369 297.526 182.369C297.832 182.369 298.118 182.311 298.384 182.193C298.649 182.076 298.88 181.913 299.077 181.705C299.277 181.492 299.433 181.252 299.543 180.983C299.656 180.714 299.711 180.43 299.707 180.131C299.707 179.733 299.613 179.366 299.423 179.028C299.238 178.691 298.982 178.42 298.656 178.216C298.334 178.011 297.965 177.909 297.548 177.909ZM356.236 176.364V188H354.128V178.415H354.06L351.338 180.153V178.222L354.23 176.364H356.236ZM363.491 188.222C362.556 188.222 361.753 187.985 361.082 187.511C360.416 187.034 359.902 186.347 359.543 185.449C359.187 184.547 359.009 183.462 359.009 182.193C359.012 180.924 359.192 179.845 359.548 178.955C359.908 178.061 360.421 177.379 361.088 176.909C361.759 176.439 362.56 176.205 363.491 176.205C364.423 176.205 365.224 176.439 365.895 176.909C366.565 177.379 367.079 178.061 367.435 178.955C367.795 179.848 367.974 180.928 367.974 182.193C367.974 183.466 367.795 184.553 367.435 185.455C367.079 186.352 366.565 187.038 365.895 187.511C365.228 187.985 364.427 188.222 363.491 188.222ZM363.491 186.443C364.219 186.443 364.793 186.085 365.213 185.369C365.637 184.65 365.849 183.591 365.849 182.193C365.849 181.269 365.753 180.492 365.56 179.864C365.366 179.235 365.094 178.761 364.741 178.443C364.389 178.121 363.973 177.96 363.491 177.96C362.768 177.96 362.196 178.32 361.776 179.04C361.355 179.756 361.143 180.807 361.139 182.193C361.135 183.121 361.228 183.902 361.418 184.534C361.611 185.167 361.884 185.644 362.236 185.966C362.588 186.284 363.007 186.443 363.491 186.443ZM418.251 176.364V188H416.143V178.415H416.075L413.354 180.153V178.222L416.246 176.364H418.251ZM425.939 176.364V188H423.831V178.415H423.763L421.041 180.153V178.222L423.933 176.364H425.939ZM35.767 215.364V227H33.6591V217.415H33.5909L30.8693 219.153V217.222L33.7614 215.364H35.767ZM38.7216 227V225.477L42.7614 221.517C43.1477 221.127 43.4697 220.78 43.7273 220.477C43.9848 220.174 44.178 219.881 44.3068 219.597C44.4356 219.312 44.5 219.009 44.5 218.688C44.5 218.32 44.4167 218.006 44.25 217.744C44.0833 217.479 43.8542 217.275 43.5625 217.131C43.2708 216.987 42.9394 216.915 42.5682 216.915C42.1856 216.915 41.8504 216.994 41.5625 217.153C41.2746 217.309 41.0511 217.53 40.892 217.818C40.7367 218.106 40.6591 218.449 40.6591 218.847H38.6534C38.6534 218.108 38.822 217.466 39.1591 216.92C39.4962 216.375 39.9602 215.953 40.5511 215.653C41.1458 215.354 41.8277 215.205 42.5966 215.205C43.3769 215.205 44.0625 215.35 44.6534 215.642C45.2443 215.934 45.7027 216.333 46.0284 216.841C46.358 217.348 46.5227 217.928 46.5227 218.58C46.5227 219.015 46.4394 219.443 46.2727 219.864C46.1061 220.284 45.8125 220.75 45.392 221.261C44.9754 221.773 44.3902 222.392 43.6364 223.119L41.6307 225.159V225.239H46.6989V227H38.7216ZM97.0483 215.364V227H94.9403V217.415H94.8722L92.1506 219.153V217.222L95.0426 215.364H97.0483ZM104.179 227.159C103.361 227.159 102.634 227.019 101.997 226.739C101.365 226.458 100.865 226.068 100.497 225.568C100.13 225.068 99.9347 224.491 99.9119 223.835H102.048C102.067 224.15 102.171 224.424 102.361 224.659C102.55 224.89 102.802 225.07 103.116 225.199C103.431 225.328 103.783 225.392 104.173 225.392C104.59 225.392 104.959 225.32 105.281 225.176C105.603 225.028 105.855 224.824 106.037 224.562C106.219 224.301 106.308 224 106.304 223.659C106.308 223.307 106.217 222.996 106.031 222.727C105.846 222.458 105.577 222.248 105.224 222.097C104.876 221.945 104.455 221.869 103.963 221.869H102.935V220.244H103.963C104.368 220.244 104.723 220.174 105.026 220.034C105.332 219.894 105.573 219.697 105.747 219.443C105.921 219.186 106.007 218.888 106.003 218.551C106.007 218.222 105.933 217.936 105.781 217.693C105.634 217.447 105.423 217.256 105.151 217.119C104.882 216.983 104.565 216.915 104.202 216.915C103.846 216.915 103.516 216.979 103.213 217.108C102.91 217.237 102.666 217.42 102.48 217.659C102.295 217.894 102.196 218.174 102.185 218.5H100.156C100.171 217.848 100.359 217.277 100.719 216.784C101.082 216.288 101.567 215.902 102.173 215.625C102.779 215.345 103.459 215.205 104.213 215.205C104.99 215.205 105.664 215.35 106.236 215.642C106.812 215.93 107.257 216.318 107.571 216.807C107.885 217.295 108.043 217.835 108.043 218.426C108.046 219.081 107.853 219.631 107.463 220.074C107.077 220.517 106.569 220.807 105.94 220.943V221.034C106.759 221.148 107.385 221.451 107.821 221.943C108.26 222.432 108.478 223.04 108.474 223.767C108.474 224.419 108.289 225.002 107.918 225.517C107.55 226.028 107.043 226.43 106.395 226.722C105.751 227.013 105.012 227.159 104.179 227.159ZM162.783 215.364V227H160.675V217.415H160.607L157.885 219.153V217.222L160.777 215.364H162.783ZM165.527 224.841V223.165L170.464 215.364H171.862V217.75H171.01L167.686 223.017V223.108H174.578V224.841H165.527ZM171.078 227V224.33L171.101 223.58V215.364H173.089V227H171.078ZM224.783 215.364V227H222.675V217.415H222.607L219.885 219.153V217.222L222.777 215.364H224.783ZM231.783 227.159C231.025 227.159 230.347 227.017 229.749 226.733C229.15 226.445 228.675 226.051 228.322 225.551C227.974 225.051 227.788 224.479 227.766 223.835H229.811C229.849 224.312 230.055 224.703 230.43 225.006C230.805 225.305 231.256 225.455 231.783 225.455C232.196 225.455 232.563 225.36 232.885 225.17C233.207 224.981 233.461 224.718 233.646 224.381C233.832 224.044 233.923 223.659 233.919 223.227C233.923 222.788 233.83 222.398 233.641 222.057C233.451 221.716 233.192 221.449 232.862 221.256C232.533 221.059 232.154 220.96 231.726 220.96C231.377 220.956 231.035 221.021 230.697 221.153C230.36 221.286 230.093 221.46 229.896 221.676L227.993 221.364L228.601 215.364H235.351V217.125H230.345L230.01 220.21H230.078C230.294 219.956 230.599 219.746 230.993 219.58C231.387 219.409 231.819 219.324 232.288 219.324C232.993 219.324 233.622 219.491 234.175 219.824C234.728 220.153 235.163 220.608 235.482 221.188C235.8 221.767 235.959 222.43 235.959 223.176C235.959 223.945 235.781 224.631 235.425 225.233C235.072 225.831 234.582 226.303 233.953 226.648C233.328 226.989 232.605 227.159 231.783 227.159ZM294.189 215.364V227H292.081V217.415H292.013L289.291 219.153V217.222L292.183 215.364H294.189ZM301.405 227.159C300.848 227.155 300.304 227.059 299.774 226.869C299.244 226.676 298.767 226.364 298.342 225.932C297.918 225.496 297.581 224.919 297.331 224.199C297.081 223.475 296.958 222.58 296.962 221.511C296.962 220.515 297.068 219.627 297.28 218.847C297.492 218.066 297.797 217.407 298.195 216.869C298.592 216.328 299.071 215.915 299.632 215.631C300.196 215.347 300.827 215.205 301.524 215.205C302.255 215.205 302.903 215.348 303.467 215.636C304.036 215.924 304.494 216.318 304.842 216.818C305.191 217.314 305.407 217.875 305.49 218.5H303.416C303.31 218.053 303.092 217.697 302.763 217.432C302.437 217.163 302.024 217.028 301.524 217.028C300.717 217.028 300.096 217.379 299.661 218.08C299.229 218.78 299.011 219.742 299.007 220.966H299.087C299.272 220.633 299.513 220.347 299.808 220.108C300.104 219.869 300.437 219.686 300.808 219.557C301.183 219.424 301.579 219.358 301.996 219.358C302.678 219.358 303.289 219.521 303.831 219.847C304.376 220.172 304.808 220.621 305.126 221.193C305.445 221.761 305.602 222.413 305.598 223.148C305.602 223.913 305.428 224.6 305.075 225.21C304.723 225.816 304.232 226.294 303.604 226.642C302.975 226.991 302.242 227.163 301.405 227.159ZM301.393 225.455C301.806 225.455 302.176 225.354 302.501 225.153C302.827 224.953 303.085 224.682 303.274 224.341C303.464 224 303.556 223.617 303.553 223.193C303.556 222.777 303.465 222.4 303.28 222.062C303.098 221.725 302.846 221.458 302.524 221.261C302.202 221.064 301.835 220.966 301.422 220.966C301.115 220.966 300.829 221.025 300.564 221.142C300.299 221.259 300.068 221.422 299.871 221.631C299.674 221.835 299.518 222.074 299.405 222.347C299.295 222.616 299.238 222.903 299.234 223.21C299.238 223.616 299.333 223.989 299.518 224.33C299.704 224.67 299.96 224.943 300.286 225.148C300.611 225.352 300.981 225.455 301.393 225.455ZM355.908 215.364V227H353.8V217.415H353.732L351.01 219.153V217.222L353.902 215.364H355.908ZM359.288 227L364.237 217.205V217.125H358.493V215.364H366.419V217.165L361.476 227H359.288ZM416.642 215.364V227H414.534V217.415H414.466L411.744 219.153V217.222L414.636 215.364H416.642ZM423.733 227.159C422.888 227.159 422.138 227.017 421.483 226.733C420.831 226.449 420.32 226.061 419.949 225.568C419.581 225.072 419.4 224.509 419.403 223.881C419.4 223.392 419.506 222.943 419.722 222.534C419.938 222.125 420.229 221.784 420.597 221.511C420.968 221.235 421.381 221.059 421.835 220.983V220.903C421.237 220.771 420.752 220.466 420.381 219.989C420.013 219.508 419.831 218.953 419.835 218.324C419.831 217.725 419.998 217.191 420.335 216.722C420.672 216.252 421.134 215.883 421.722 215.614C422.309 215.341 422.979 215.205 423.733 215.205C424.479 215.205 425.144 215.341 425.727 215.614C426.314 215.883 426.777 216.252 427.114 216.722C427.455 217.191 427.625 217.725 427.625 218.324C427.625 218.953 427.438 219.508 427.062 219.989C426.691 220.466 426.212 220.771 425.625 220.903V220.983C426.08 221.059 426.489 221.235 426.852 221.511C427.22 221.784 427.511 222.125 427.727 222.534C427.947 222.943 428.057 223.392 428.057 223.881C428.057 224.509 427.871 225.072 427.5 225.568C427.129 226.061 426.617 226.449 425.966 226.733C425.318 227.017 424.574 227.159 423.733 227.159ZM423.733 225.534C424.169 225.534 424.547 225.46 424.869 225.312C425.191 225.161 425.441 224.949 425.619 224.676C425.797 224.403 425.888 224.089 425.892 223.733C425.888 223.362 425.792 223.034 425.602 222.75C425.417 222.462 425.161 222.237 424.835 222.074C424.513 221.911 424.146 221.83 423.733 221.83C423.316 221.83 422.945 221.911 422.619 222.074C422.294 222.237 422.036 222.462 421.847 222.75C421.661 223.034 421.57 223.362 421.574 223.733C421.57 224.089 421.657 224.403 421.835 224.676C422.013 224.945 422.263 225.155 422.585 225.307C422.911 225.458 423.294 225.534 423.733 225.534ZM423.733 220.233C424.089 220.233 424.403 220.161 424.676 220.017C424.953 219.873 425.17 219.672 425.33 219.415C425.489 219.157 425.57 218.86 425.574 218.523C425.57 218.189 425.491 217.898 425.335 217.648C425.18 217.394 424.964 217.199 424.688 217.062C424.411 216.922 424.093 216.852 423.733 216.852C423.366 216.852 423.042 216.922 422.761 217.062C422.485 217.199 422.269 217.394 422.114 217.648C421.962 217.898 421.888 218.189 421.892 218.523C421.888 218.86 421.964 219.157 422.119 219.415C422.278 219.669 422.496 219.869 422.773 220.017C423.053 220.161 423.373 220.233 423.733 220.233ZM35.767 254.364V266H33.6591V256.415H33.5909L30.8693 258.153V256.222L33.7614 254.364H35.767ZM42.7614 254.205C43.3182 254.208 43.8598 254.307 44.3864 254.5C44.9167 254.689 45.3939 255 45.8182 255.432C46.2424 255.86 46.5795 256.434 46.8295 257.153C47.0795 257.873 47.2045 258.763 47.2045 259.824C47.2083 260.824 47.1023 261.718 46.8864 262.506C46.6742 263.29 46.3693 263.953 45.9716 264.494C45.5739 265.036 45.0947 265.449 44.5341 265.733C43.9735 266.017 43.3428 266.159 42.642 266.159C41.9072 266.159 41.2557 266.015 40.6875 265.727C40.1231 265.439 39.6667 265.045 39.3182 264.545C38.9697 264.045 38.7557 263.473 38.6761 262.83H40.75C40.8561 263.292 41.072 263.659 41.3977 263.932C41.7273 264.201 42.142 264.335 42.642 264.335C43.4489 264.335 44.0701 263.985 44.5057 263.284C44.9413 262.583 45.1591 261.61 45.1591 260.364H45.0795C44.8939 260.697 44.6534 260.985 44.358 261.227C44.0625 261.466 43.7273 261.65 43.3523 261.778C42.9811 261.907 42.5871 261.972 42.1705 261.972C41.4886 261.972 40.875 261.809 40.3295 261.483C39.7879 261.157 39.358 260.71 39.0398 260.142C38.7254 259.574 38.5663 258.924 38.5625 258.193C38.5625 257.436 38.7367 256.756 39.0852 256.153C39.4375 255.547 39.928 255.07 40.5568 254.722C41.1856 254.369 41.9205 254.197 42.7614 254.205ZM42.767 255.909C42.358 255.909 41.9886 256.009 41.6591 256.21C41.3333 256.407 41.0758 256.676 40.8864 257.017C40.7008 257.354 40.608 257.731 40.608 258.148C40.6117 258.561 40.7045 258.936 40.8864 259.273C41.072 259.61 41.3239 259.877 41.642 260.074C41.964 260.271 42.3314 260.369 42.7443 260.369C43.0511 260.369 43.3371 260.311 43.6023 260.193C43.8674 260.076 44.0985 259.913 44.2955 259.705C44.4962 259.492 44.6515 259.252 44.7614 258.983C44.875 258.714 44.9299 258.43 44.9261 258.131C44.9261 257.733 44.8314 257.366 44.642 257.028C44.4564 256.691 44.2008 256.42 43.875 256.216C43.553 256.011 43.1837 255.909 42.767 255.909ZM92.7528 266V264.477L96.7926 260.517C97.179 260.127 97.5009 259.78 97.7585 259.477C98.0161 259.174 98.2093 258.881 98.3381 258.597C98.4669 258.312 98.5312 258.009 98.5312 257.688C98.5312 257.32 98.4479 257.006 98.2812 256.744C98.1146 256.479 97.8854 256.275 97.5938 256.131C97.3021 255.987 96.9706 255.915 96.5994 255.915C96.2169 255.915 95.8816 255.994 95.5938 256.153C95.3059 256.309 95.0824 256.53 94.9233 256.818C94.768 257.106 94.6903 257.449 94.6903 257.847H92.6847C92.6847 257.108 92.8532 256.466 93.1903 255.92C93.5275 255.375 93.9915 254.953 94.5824 254.653C95.1771 254.354 95.8589 254.205 96.6278 254.205C97.4081 254.205 98.0938 254.35 98.6847 254.642C99.2756 254.934 99.7339 255.333 100.06 255.841C100.389 256.348 100.554 256.928 100.554 257.58C100.554 258.015 100.471 258.443 100.304 258.864C100.137 259.284 99.8438 259.75 99.4233 260.261C99.0066 260.773 98.4214 261.392 97.6676 262.119L95.6619 264.159V264.239H100.73V266H92.7528ZM106.991 266.222C106.056 266.222 105.253 265.985 104.582 265.511C103.916 265.034 103.402 264.347 103.043 263.449C102.687 262.547 102.509 261.462 102.509 260.193C102.512 258.924 102.692 257.845 103.048 256.955C103.408 256.061 103.921 255.379 104.588 254.909C105.259 254.439 106.06 254.205 106.991 254.205C107.923 254.205 108.724 254.439 109.395 254.909C110.065 255.379 110.579 256.061 110.935 256.955C111.295 257.848 111.474 258.928 111.474 260.193C111.474 261.466 111.295 262.553 110.935 263.455C110.579 264.352 110.065 265.038 109.395 265.511C108.728 265.985 107.927 266.222 106.991 266.222ZM106.991 264.443C107.719 264.443 108.293 264.085 108.713 263.369C109.137 262.65 109.349 261.591 109.349 260.193C109.349 259.269 109.253 258.492 109.06 257.864C108.866 257.235 108.594 256.761 108.241 256.443C107.889 256.121 107.473 255.96 106.991 255.96C106.268 255.96 105.696 256.32 105.276 257.04C104.855 257.756 104.643 258.807 104.639 260.193C104.635 261.121 104.728 261.902 104.918 262.534C105.111 263.167 105.384 263.644 105.736 263.966C106.088 264.284 106.507 264.443 106.991 264.443ZM160.987 266V264.477L165.027 260.517C165.413 260.127 165.735 259.78 165.993 259.477C166.25 259.174 166.444 258.881 166.572 258.597C166.701 258.312 166.766 258.009 166.766 257.688C166.766 257.32 166.682 257.006 166.516 256.744C166.349 256.479 166.12 256.275 165.828 256.131C165.536 255.987 165.205 255.915 164.834 255.915C164.451 255.915 164.116 255.994 163.828 256.153C163.54 256.309 163.317 256.53 163.158 256.818C163.002 257.106 162.925 257.449 162.925 257.847H160.919C160.919 257.108 161.088 256.466 161.425 255.92C161.762 255.375 162.226 254.953 162.817 254.653C163.411 254.354 164.093 254.205 164.862 254.205C165.643 254.205 166.328 254.35 166.919 254.642C167.51 254.934 167.968 255.333 168.294 255.841C168.624 256.348 168.788 256.928 168.788 257.58C168.788 258.015 168.705 258.443 168.538 258.864C168.372 259.284 168.078 259.75 167.658 260.261C167.241 260.773 166.656 261.392 165.902 262.119L163.896 264.159V264.239H168.964V266H160.987ZM175.658 254.364V266H173.55V256.415H173.482L170.76 258.153V256.222L173.652 254.364H175.658ZM218.3 266V264.477L222.339 260.517C222.726 260.127 223.048 259.78 223.305 259.477C223.563 259.174 223.756 258.881 223.885 258.597C224.014 258.312 224.078 258.009 224.078 257.688C224.078 257.32 223.995 257.006 223.828 256.744C223.661 256.479 223.432 256.275 223.141 256.131C222.849 255.987 222.518 255.915 222.146 255.915C221.764 255.915 221.429 255.994 221.141 256.153C220.853 256.309 220.629 256.53 220.47 256.818C220.315 257.106 220.237 257.449 220.237 257.847H218.232C218.232 257.108 218.4 256.466 218.737 255.92C219.074 255.375 219.538 254.953 220.129 254.653C220.724 254.354 221.406 254.205 222.175 254.205C222.955 254.205 223.641 254.35 224.232 254.642C224.822 254.934 225.281 255.333 225.607 255.841C225.936 256.348 226.101 256.928 226.101 257.58C226.101 258.015 226.018 258.443 225.851 258.864C225.684 259.284 225.391 259.75 224.97 260.261C224.554 260.773 223.968 261.392 223.214 262.119L221.209 264.159V264.239H226.277V266H218.3ZM228.237 266V264.477L232.277 260.517C232.663 260.127 232.985 259.78 233.243 259.477C233.5 259.174 233.694 258.881 233.822 258.597C233.951 258.312 234.016 258.009 234.016 257.688C234.016 257.32 233.932 257.006 233.766 256.744C233.599 256.479 233.37 256.275 233.078 256.131C232.786 255.987 232.455 255.915 232.084 255.915C231.701 255.915 231.366 255.994 231.078 256.153C230.79 256.309 230.567 256.53 230.408 256.818C230.252 257.106 230.175 257.449 230.175 257.847H228.169C228.169 257.108 228.338 256.466 228.675 255.92C229.012 255.375 229.476 254.953 230.067 254.653C230.661 254.354 231.343 254.205 232.112 254.205C232.893 254.205 233.578 254.35 234.169 254.642C234.76 254.934 235.218 255.333 235.544 255.841C235.874 256.348 236.038 256.928 236.038 257.58C236.038 258.015 235.955 258.443 235.788 258.864C235.622 259.284 235.328 259.75 234.908 260.261C234.491 260.773 233.906 261.392 233.152 262.119L231.146 264.159V264.239H236.214V266H228.237ZM289.768 266V264.477L293.808 260.517C294.195 260.127 294.517 259.78 294.774 259.477C295.032 259.174 295.225 258.881 295.354 258.597C295.482 258.312 295.547 258.009 295.547 257.688C295.547 257.32 295.464 257.006 295.297 256.744C295.13 256.479 294.901 256.275 294.609 256.131C294.318 255.987 293.986 255.915 293.615 255.915C293.232 255.915 292.897 255.994 292.609 256.153C292.321 256.309 292.098 256.53 291.939 256.818C291.784 257.106 291.706 257.449 291.706 257.847H289.7C289.7 257.108 289.869 256.466 290.206 255.92C290.543 255.375 291.007 254.953 291.598 254.653C292.193 254.354 292.875 254.205 293.643 254.205C294.424 254.205 295.109 254.35 295.7 254.642C296.291 254.934 296.75 255.333 297.075 255.841C297.405 256.348 297.57 256.928 297.57 257.58C297.57 258.015 297.486 258.443 297.32 258.864C297.153 259.284 296.859 259.75 296.439 260.261C296.022 260.773 295.437 261.392 294.683 262.119L292.678 264.159V264.239H297.746V266H289.768ZM303.882 266.159C303.064 266.159 302.337 266.019 301.7 265.739C301.068 265.458 300.568 265.068 300.2 264.568C299.833 264.068 299.638 263.491 299.615 262.835H301.751C301.77 263.15 301.875 263.424 302.064 263.659C302.253 263.89 302.505 264.07 302.82 264.199C303.134 264.328 303.486 264.392 303.876 264.392C304.293 264.392 304.662 264.32 304.984 264.176C305.306 264.028 305.558 263.824 305.74 263.562C305.922 263.301 306.011 263 306.007 262.659C306.011 262.307 305.92 261.996 305.734 261.727C305.549 261.458 305.28 261.248 304.928 261.097C304.579 260.945 304.159 260.869 303.666 260.869H302.638V259.244H303.666C304.071 259.244 304.426 259.174 304.729 259.034C305.036 258.894 305.276 258.697 305.45 258.443C305.625 258.186 305.71 257.888 305.706 257.551C305.71 257.222 305.636 256.936 305.484 256.693C305.337 256.447 305.126 256.256 304.854 256.119C304.585 255.983 304.268 255.915 303.905 255.915C303.549 255.915 303.219 255.979 302.916 256.108C302.613 256.237 302.369 256.42 302.183 256.659C301.998 256.894 301.899 257.174 301.888 257.5H299.859C299.875 256.848 300.062 256.277 300.422 255.784C300.786 255.288 301.27 254.902 301.876 254.625C302.482 254.345 303.162 254.205 303.916 254.205C304.693 254.205 305.367 254.35 305.939 254.642C306.515 254.93 306.96 255.318 307.274 255.807C307.589 256.295 307.746 256.835 307.746 257.426C307.75 258.081 307.556 258.631 307.166 259.074C306.78 259.517 306.272 259.807 305.643 259.943V260.034C306.462 260.148 307.089 260.451 307.524 260.943C307.964 261.432 308.181 262.04 308.178 262.767C308.178 263.419 307.992 264.002 307.621 264.517C307.253 265.028 306.746 265.43 306.098 265.722C305.454 266.013 304.715 266.159 303.882 266.159ZM349.815 266V264.477L353.855 260.517C354.241 260.127 354.563 259.78 354.821 259.477C355.079 259.174 355.272 258.881 355.401 258.597C355.529 258.312 355.594 258.009 355.594 257.688C355.594 257.32 355.51 257.006 355.344 256.744C355.177 256.479 354.948 256.275 354.656 256.131C354.365 255.987 354.033 255.915 353.662 255.915C353.279 255.915 352.944 255.994 352.656 256.153C352.368 256.309 352.145 256.53 351.986 256.818C351.83 257.106 351.753 257.449 351.753 257.847H349.747C349.747 257.108 349.916 256.466 350.253 255.92C350.59 255.375 351.054 254.953 351.645 254.653C352.24 254.354 352.921 254.205 353.69 254.205C354.471 254.205 355.156 254.35 355.747 254.642C356.338 254.934 356.796 255.333 357.122 255.841C357.452 256.348 357.616 256.928 357.616 257.58C357.616 258.015 357.533 258.443 357.366 258.864C357.2 259.284 356.906 259.75 356.486 260.261C356.069 260.773 355.484 261.392 354.73 262.119L352.724 264.159V264.239H357.793V266H349.815ZM359.293 263.841V262.165L364.23 254.364H365.628V256.75H364.776L361.452 262.017V262.108H368.344V263.841H359.293ZM364.844 266V263.33L364.866 262.58V254.364H366.855V266H364.844ZM405.878 266V264.477L409.918 260.517C410.304 260.127 410.626 259.78 410.884 259.477C411.141 259.174 411.334 258.881 411.463 258.597C411.592 258.312 411.656 258.009 411.656 257.688C411.656 257.32 411.573 257.006 411.406 256.744C411.24 256.479 411.01 256.275 410.719 256.131C410.427 255.987 410.096 255.915 409.724 255.915C409.342 255.915 409.007 255.994 408.719 256.153C408.431 256.309 408.207 256.53 408.048 256.818C407.893 257.106 407.815 257.449 407.815 257.847H405.81C405.81 257.108 405.978 256.466 406.315 255.92C406.652 255.375 407.116 254.953 407.707 254.653C408.302 254.354 408.984 254.205 409.753 254.205C410.533 254.205 411.219 254.35 411.81 254.642C412.401 254.934 412.859 255.333 413.185 255.841C413.514 256.348 413.679 256.928 413.679 257.58C413.679 258.015 413.596 258.443 413.429 258.864C413.262 259.284 412.969 259.75 412.548 260.261C412.132 260.773 411.546 261.392 410.793 262.119L408.787 264.159V264.239H413.855V266H405.878ZM419.861 266.159C419.103 266.159 418.425 266.017 417.827 265.733C417.228 265.445 416.753 265.051 416.401 264.551C416.052 264.051 415.866 263.479 415.844 262.835H417.889C417.927 263.312 418.134 263.703 418.509 264.006C418.884 264.305 419.334 264.455 419.861 264.455C420.274 264.455 420.641 264.36 420.963 264.17C421.285 263.981 421.539 263.718 421.724 263.381C421.91 263.044 422.001 262.659 421.997 262.227C422.001 261.788 421.908 261.398 421.719 261.057C421.529 260.716 421.27 260.449 420.94 260.256C420.611 260.059 420.232 259.96 419.804 259.96C419.455 259.956 419.113 260.021 418.776 260.153C418.438 260.286 418.171 260.46 417.974 260.676L416.071 260.364L416.679 254.364H423.429V256.125H418.423L418.088 259.21H418.156C418.372 258.956 418.677 258.746 419.071 258.58C419.465 258.409 419.897 258.324 420.366 258.324C421.071 258.324 421.7 258.491 422.253 258.824C422.806 259.153 423.241 259.608 423.56 260.188C423.878 260.767 424.037 261.43 424.037 262.176C424.037 262.945 423.859 263.631 423.503 264.233C423.151 264.831 422.66 265.303 422.031 265.648C421.406 265.989 420.683 266.159 419.861 266.159ZM31.0341 305V303.477L35.0739 299.517C35.4602 299.127 35.7822 298.78 36.0398 298.477C36.2973 298.174 36.4905 297.881 36.6193 297.597C36.7481 297.312 36.8125 297.009 36.8125 296.688C36.8125 296.32 36.7292 296.006 36.5625 295.744C36.3958 295.479 36.1667 295.275 35.875 295.131C35.5833 294.987 35.2519 294.915 34.8807 294.915C34.4981 294.915 34.1629 294.994 33.875 295.153C33.5871 295.309 33.3636 295.53 33.2045 295.818C33.0492 296.106 32.9716 296.449 32.9716 296.847H30.9659C30.9659 296.108 31.1345 295.466 31.4716 294.92C31.8087 294.375 32.2727 293.953 32.8636 293.653C33.4583 293.354 34.1402 293.205 34.9091 293.205C35.6894 293.205 36.375 293.35 36.9659 293.642C37.5568 293.934 38.0152 294.333 38.3409 294.841C38.6705 295.348 38.8352 295.928 38.8352 296.58C38.8352 297.015 38.7519 297.443 38.5852 297.864C38.4186 298.284 38.125 298.75 37.7045 299.261C37.2879 299.773 36.7027 300.392 35.9489 301.119L33.9432 303.159V303.239H39.0114V305H31.0341ZM45.233 305.159C44.6761 305.155 44.1326 305.059 43.6023 304.869C43.072 304.676 42.5947 304.364 42.1705 303.932C41.7462 303.496 41.4091 302.919 41.1591 302.199C40.9091 301.475 40.786 300.58 40.7898 299.511C40.7898 298.515 40.8958 297.627 41.108 296.847C41.3201 296.066 41.625 295.407 42.0227 294.869C42.4205 294.328 42.8996 293.915 43.4602 293.631C44.0246 293.347 44.6553 293.205 45.3523 293.205C46.0833 293.205 46.7311 293.348 47.2955 293.636C47.8636 293.924 48.322 294.318 48.6705 294.818C49.0189 295.314 49.2348 295.875 49.3182 296.5H47.2443C47.1383 296.053 46.9205 295.697 46.5909 295.432C46.2652 295.163 45.8523 295.028 45.3523 295.028C44.5455 295.028 43.9242 295.379 43.4886 296.08C43.0568 296.78 42.839 297.742 42.8352 298.966H42.9148C43.1004 298.633 43.3409 298.347 43.6364 298.108C43.9318 297.869 44.2652 297.686 44.6364 297.557C45.0114 297.424 45.4072 297.358 45.8239 297.358C46.5057 297.358 47.1174 297.521 47.6591 297.847C48.2045 298.172 48.6364 298.621 48.9545 299.193C49.2727 299.761 49.4299 300.413 49.4261 301.148C49.4299 301.913 49.2557 302.6 48.9034 303.21C48.5511 303.816 48.0606 304.294 47.4318 304.642C46.803 304.991 46.0701 305.163 45.233 305.159ZM45.2216 303.455C45.6345 303.455 46.0038 303.354 46.3295 303.153C46.6553 302.953 46.9129 302.682 47.1023 302.341C47.2917 302 47.3845 301.617 47.3807 301.193C47.3845 300.777 47.2936 300.4 47.108 300.062C46.9261 299.725 46.6742 299.458 46.3523 299.261C46.0303 299.064 45.6629 298.966 45.25 298.966C44.9432 298.966 44.6572 299.025 44.392 299.142C44.1269 299.259 43.8958 299.422 43.6989 299.631C43.5019 299.835 43.3466 300.074 43.233 300.347C43.1231 300.616 43.0663 300.903 43.0625 301.21C43.0663 301.616 43.161 301.989 43.3466 302.33C43.5322 302.67 43.7879 302.943 44.1136 303.148C44.4394 303.352 44.8087 303.455 45.2216 303.455ZM91.0341 305V303.477L95.0739 299.517C95.4602 299.127 95.7822 298.78 96.0398 298.477C96.2973 298.174 96.4905 297.881 96.6193 297.597C96.7481 297.312 96.8125 297.009 96.8125 296.688C96.8125 296.32 96.7292 296.006 96.5625 295.744C96.3958 295.479 96.1667 295.275 95.875 295.131C95.5833 294.987 95.2519 294.915 94.8807 294.915C94.4981 294.915 94.1629 294.994 93.875 295.153C93.5871 295.309 93.3636 295.53 93.2045 295.818C93.0492 296.106 92.9716 296.449 92.9716 296.847H90.9659C90.9659 296.108 91.1345 295.466 91.4716 294.92C91.8087 294.375 92.2727 293.953 92.8636 293.653C93.4583 293.354 94.1402 293.205 94.9091 293.205C95.6894 293.205 96.375 293.35 96.9659 293.642C97.5568 293.934 98.0152 294.333 98.3409 294.841C98.6705 295.348 98.8352 295.928 98.8352 296.58C98.8352 297.015 98.7519 297.443 98.5852 297.864C98.4186 298.284 98.125 298.75 97.7045 299.261C97.2879 299.773 96.7027 300.392 95.9489 301.119L93.9432 303.159V303.239H99.0114V305H91.0341ZM101.398 305L106.347 295.205V295.125H100.602V293.364H108.528V295.165L103.585 305H101.398ZM157.987 305V303.477L162.027 299.517C162.413 299.127 162.735 298.78 162.993 298.477C163.25 298.174 163.444 297.881 163.572 297.597C163.701 297.312 163.766 297.009 163.766 296.688C163.766 296.32 163.682 296.006 163.516 295.744C163.349 295.479 163.12 295.275 162.828 295.131C162.536 294.987 162.205 294.915 161.834 294.915C161.451 294.915 161.116 294.994 160.828 295.153C160.54 295.309 160.317 295.53 160.158 295.818C160.002 296.106 159.925 296.449 159.925 296.847H157.919C157.919 296.108 158.088 295.466 158.425 294.92C158.762 294.375 159.226 293.953 159.817 293.653C160.411 293.354 161.093 293.205 161.862 293.205C162.643 293.205 163.328 293.35 163.919 293.642C164.51 293.934 164.968 294.333 165.294 294.841C165.624 295.348 165.788 295.928 165.788 296.58C165.788 297.015 165.705 297.443 165.538 297.864C165.372 298.284 165.078 298.75 164.658 299.261C164.241 299.773 163.656 300.392 162.902 301.119L160.896 303.159V303.239H165.964V305H157.987ZM172.061 305.159C171.216 305.159 170.466 305.017 169.811 304.733C169.16 304.449 168.648 304.061 168.277 303.568C167.91 303.072 167.728 302.509 167.732 301.881C167.728 301.392 167.834 300.943 168.05 300.534C168.266 300.125 168.557 299.784 168.925 299.511C169.296 299.235 169.709 299.059 170.163 298.983V298.903C169.565 298.771 169.08 298.466 168.709 297.989C168.341 297.508 168.16 296.953 168.163 296.324C168.16 295.725 168.326 295.191 168.663 294.722C169 294.252 169.463 293.883 170.05 293.614C170.637 293.341 171.307 293.205 172.061 293.205C172.807 293.205 173.472 293.341 174.055 293.614C174.643 293.883 175.105 294.252 175.442 294.722C175.783 295.191 175.953 295.725 175.953 296.324C175.953 296.953 175.766 297.508 175.391 297.989C175.019 298.466 174.54 298.771 173.953 298.903V298.983C174.408 299.059 174.817 299.235 175.18 299.511C175.548 299.784 175.839 300.125 176.055 300.534C176.275 300.943 176.385 301.392 176.385 301.881C176.385 302.509 176.199 303.072 175.828 303.568C175.457 304.061 174.946 304.449 174.294 304.733C173.646 305.017 172.902 305.159 172.061 305.159ZM172.061 303.534C172.497 303.534 172.875 303.46 173.197 303.312C173.519 303.161 173.769 302.949 173.947 302.676C174.125 302.403 174.216 302.089 174.22 301.733C174.216 301.362 174.12 301.034 173.93 300.75C173.745 300.462 173.489 300.237 173.163 300.074C172.841 299.911 172.474 299.83 172.061 299.83C171.644 299.83 171.273 299.911 170.947 300.074C170.622 300.237 170.364 300.462 170.175 300.75C169.989 301.034 169.898 301.362 169.902 301.733C169.898 302.089 169.985 302.403 170.163 302.676C170.341 302.945 170.591 303.155 170.913 303.307C171.239 303.458 171.622 303.534 172.061 303.534ZM172.061 298.233C172.417 298.233 172.732 298.161 173.004 298.017C173.281 297.873 173.499 297.672 173.658 297.415C173.817 297.157 173.898 296.86 173.902 296.523C173.898 296.189 173.819 295.898 173.663 295.648C173.508 295.394 173.292 295.199 173.016 295.062C172.739 294.922 172.421 294.852 172.061 294.852C171.694 294.852 171.37 294.922 171.089 295.062C170.813 295.199 170.597 295.394 170.442 295.648C170.29 295.898 170.216 296.189 170.22 296.523C170.216 296.86 170.292 297.157 170.447 297.415C170.607 297.669 170.824 297.869 171.101 298.017C171.381 298.161 171.701 298.233 172.061 298.233Z" fill="black"/>
<circle cx="40" cy="133" r="3" fill="#1976D2"/>
<circle cx="37" cy="209" r="3" fill="#1976D2"/>
<circle cx="361" cy="167" r="3" fill="#1976D2"/>
<circle cx="359" cy="130" r="3" fill="#1976D2"/>
<circle cx="228" cy="170" r="3" fill="#1976D2"/>
<line x1="12" y1="105.5" x2="444" y2="105.5" stroke="white"/>
<path d="M318 41.4825L327.733 31.75L318 21.9962L320.996 19L333.746 31.75L320.996 44.5L318 41.4825Z" fill="#3D7196"/>
<path d="M146.746 41.4825L137.014 31.75L146.746 21.9962L143.75 19L131 31.75L143.75 44.5L146.746 41.4825Z" fill="#3D7196"/>
</g>
<defs>
<filter id="filter0_d_336_31" x="0" y="0" width="479" height="383" filterUnits="userSpaceOnUse" color-interpolation-filters="sRGB">
<feFlood flood-opacity="0" result="BackgroundImageFix"/>
<feColorMatrix in="SourceAlpha" type="matrix" values="0 0 0 0 0 0 0 0 0 0 0 0 0 0 0 0 0 0 127 0" result="hardAlpha"/>
<feOffset dx="4" dy="4"/>
<feGaussianBlur stdDeviation="2"/>
<feComposite in2="hardAlpha" operator="out"/>
<feColorMatrix type="matrix" values="0 0 0 0 0 0 0 0 0 0 0 0 0 0 0 0 0 0 0.25 0"/>
<feBlend mode="normal" in2="BackgroundImageFix" result="effect1_dropShadow_336_31"/>
<feBlend mode="normal" in="SourceGraphic" in2="effect1_dropShadow_336_31" result="shape"/>
</filter>
</defs>
</svg>
