<svg width="405" height="21" viewBox="0 0 405 21" fill="none" xmlns="http://www.w3.org/2000/svg">
<path d="M0.469105 16V14.3295L5.63707 8.97514C6.18892 8.39347 6.64382 7.88388 7.00178 7.44638C7.3647 7.00391 7.63565 6.58381 7.81463 6.18608C7.99361 5.78835 8.0831 5.36577 8.0831 4.91832C8.0831 4.41122 7.96378 3.97372 7.72514 3.60582C7.48651 3.23295 7.16087 2.94709 6.74822 2.74822C6.33558 2.54439 5.87074 2.44247 5.35369 2.44247C4.80682 2.44247 4.32955 2.55433 3.92188 2.77805C3.5142 3.00178 3.20099 3.31747 2.98224 3.72514C2.76349 4.13281 2.65412 4.61008 2.65412 5.15696H0.45419C0.45419 4.22727 0.667969 3.41442 1.09553 2.7184C1.52308 2.02237 2.10973 1.48295 2.85547 1.10014C3.60121 0.712357 4.44886 0.518465 5.39844 0.518465C6.35795 0.518465 7.20313 0.709872 7.93395 1.09268C8.66974 1.47052 9.24396 1.98757 9.6566 2.64382C10.0692 3.2951 10.2756 4.0309 10.2756 4.85121C10.2756 5.41797 10.1687 5.9723 9.9549 6.5142C9.74609 7.05611 9.38068 7.66016 8.85867 8.32635C8.33665 8.98757 7.6108 9.79048 6.68111 10.7351L3.64595 13.9119V14.0238H10.5217V16H0.469105ZM18.6651 16.2536C17.4869 16.2486 16.4801 15.9379 15.6449 15.3214C14.8097 14.7049 14.1708 13.8075 13.7283 12.6293C13.2859 11.451 13.0646 10.0316 13.0646 8.37109C13.0646 6.71555 13.2859 5.30114 13.7283 4.12784C14.1758 2.95454 14.8171 2.05966 15.6523 1.44318C16.4925 0.826704 17.4968 0.518465 18.6651 0.518465C19.8335 0.518465 20.8352 0.82919 21.6705 1.45064C22.5057 2.06712 23.1445 2.962 23.587 4.1353C24.0344 5.30362 24.2582 6.71555 24.2582 8.37109C24.2582 10.0366 24.0369 11.4585 23.5945 12.6367C23.152 13.81 22.5131 14.7074 21.6779 15.3288C20.8427 15.9453 19.8384 16.2536 18.6651 16.2536ZM18.6651 14.2624C19.6992 14.2624 20.5071 13.7578 21.0888 12.7486C21.6754 11.7393 21.9688 10.2802 21.9688 8.37109C21.9688 7.10334 21.8345 6.03196 21.5661 5.15696C21.3026 4.27699 20.9222 3.61079 20.4251 3.15838C19.9329 2.70099 19.3462 2.4723 18.6651 2.4723C17.636 2.4723 16.8281 2.9794 16.2415 3.99361C15.6548 5.00781 15.359 6.46697 15.354 8.37109C15.354 9.64382 15.4858 10.7202 15.7493 11.6001C16.0178 12.4751 16.3981 13.1388 16.8903 13.5913C17.3825 14.0387 17.9741 14.2624 18.6651 14.2624ZM26.9037 16V14.3295L32.0716 8.97514C32.6235 8.39347 33.0784 7.88388 33.4363 7.44638C33.7993 7.00391 34.0702 6.58381 34.2492 6.18608C34.4282 5.78835 34.5177 5.36577 34.5177 4.91832C34.5177 4.41122 34.3983 3.97372 34.1597 3.60582C33.9211 3.23295 33.5954 2.94709 33.1828 2.74822C32.7702 2.54439 32.3053 2.44247 31.7883 2.44247C31.2414 2.44247 30.7641 2.55433 30.3564 2.77805C29.9488 3.00178 29.6356 3.31747 29.4168 3.72514C29.1981 4.13281 29.0887 4.61008 29.0887 5.15696H26.8888C26.8888 4.22727 27.1025 3.41442 27.5301 2.7184C27.9577 2.02237 28.5443 1.48295 29.29 1.10014C30.0358 0.712357 30.8834 0.518465 31.833 0.518465C32.7925 0.518465 33.6377 0.709872 34.3685 1.09268C35.1043 1.47052 35.6785 1.98757 36.0912 2.64382C36.5038 3.2951 36.7101 4.0309 36.7101 4.85121C36.7101 5.41797 36.6032 5.9723 36.3895 6.5142C36.1807 7.05611 35.8153 7.66016 35.2932 8.32635C34.7712 8.98757 34.0454 9.79048 33.1157 10.7351L30.0805 13.9119V14.0238H36.9562V16H26.9037ZM45.0997 16.2088C44.0756 16.2088 43.1608 16.0323 42.3554 15.6793C41.555 15.3263 40.9211 14.8366 40.4537 14.2102C39.9914 13.5788 39.7428 12.848 39.708 12.0178H42.0496C42.0795 12.4702 42.2311 12.8629 42.5045 13.196C42.7829 13.5241 43.1459 13.7777 43.5933 13.9567C44.0407 14.1357 44.5379 14.2251 45.0848 14.2251C45.6863 14.2251 46.2183 14.1207 46.6807 13.9119C47.148 13.7031 47.5134 13.4123 47.7769 13.0394C48.0404 12.6616 48.1721 12.2266 48.1721 11.7344C48.1721 11.2223 48.0404 10.7724 47.7769 10.3846C47.5184 9.99183 47.1381 9.68359 46.6359 9.45987C46.1388 9.23615 45.5372 9.12429 44.8312 9.12429H43.5411V7.24503H44.8312C45.398 7.24503 45.8952 7.14311 46.3227 6.93928C46.7552 6.73544 47.0933 6.45206 47.3369 6.08913C47.5805 5.72124 47.7023 5.29119 47.7023 4.79901C47.7023 4.3267 47.5954 3.91655 47.3817 3.56854C47.1729 3.21555 46.8746 2.93963 46.4868 2.74077C46.104 2.5419 45.6515 2.44247 45.1295 2.44247C44.6324 2.44247 44.1675 2.53445 43.735 2.7184C43.3074 2.89737 42.9594 3.15589 42.691 3.49396C42.4225 3.82706 42.2783 4.22727 42.2584 4.6946H40.0287C40.0535 3.86932 40.2971 3.14347 40.7595 2.51704C41.2268 1.89062 41.8433 1.40092 42.6089 1.04794C43.3746 0.694957 44.2247 0.518465 45.1594 0.518465C46.1388 0.518465 46.9839 0.709872 47.6949 1.09268C48.4108 1.47052 48.9626 1.97514 49.3504 2.60653C49.7432 3.23793 49.9371 3.92898 49.9321 4.67969C49.9371 5.5348 49.6984 6.26065 49.2162 6.85724C48.7389 7.45383 48.1025 7.85405 47.3071 8.05788V8.1772C48.3213 8.33132 49.1068 8.73402 49.6636 9.3853C50.2254 10.0366 50.5038 10.8445 50.4988 11.8089C50.5038 12.6491 50.2702 13.4023 49.7979 14.0685C49.3305 14.7347 48.6917 15.2592 47.8813 15.642C47.0709 16.0199 46.1437 16.2088 45.0997 16.2088ZM59.0842 0.727272H61.8807L66.7429 12.5994H66.9219L71.7841 0.727272H74.5806V16H72.3881V4.94815H72.2464L67.7422 15.9776H65.9226L61.4183 4.9407H61.2766V16H59.0842V0.727272ZM82.6887 16.2312C81.5601 16.2312 80.5882 15.9901 79.7728 15.5078C78.9624 15.0206 78.336 14.337 77.8936 13.457C77.4561 12.5721 77.2373 11.5355 77.2373 10.3473C77.2373 9.17401 77.4561 8.13991 77.8936 7.24503C78.336 6.35014 78.9525 5.65163 79.743 5.1495C80.5384 4.64737 81.4681 4.39631 82.532 4.39631C83.1784 4.39631 83.8048 4.5032 84.4113 4.71697C85.0178 4.93075 85.5622 5.26633 86.0445 5.72372C86.5267 6.18111 86.907 6.77521 87.1855 7.50604C87.4639 8.23189 87.6031 9.11435 87.6031 10.1534V10.9439H78.4976V9.27344H85.4181C85.4181 8.68679 85.2987 8.16726 85.0601 7.71484C84.8215 7.25746 84.4859 6.89702 84.0534 6.63352C83.6258 6.37003 83.1237 6.23828 82.547 6.23828C81.9205 6.23828 81.3737 6.3924 80.9063 6.70064C80.444 7.00391 80.086 7.40163 79.8325 7.89382C79.5839 8.38104 79.4596 8.91051 79.4596 9.48224V10.7873C79.4596 11.5529 79.5938 12.2042 79.8623 12.7411C80.1357 13.2781 80.5161 13.6882 81.0033 13.9716C81.4905 14.25 82.0597 14.3892 82.711 14.3892C83.1336 14.3892 83.5189 14.3295 83.8669 14.2102C84.2149 14.0859 84.5157 13.902 84.7693 13.6584C85.0228 13.4148 85.2167 13.114 85.3509 12.756L87.4614 13.1364C87.2923 13.7578 86.9891 14.3022 86.5516 14.7695C86.1191 15.2319 85.5747 15.5923 84.9184 15.8509C84.2671 16.1044 83.5239 16.2312 82.6887 16.2312ZM92.3068 9.19886V16H90.0771V4.54545H92.2173V6.4098H92.359C92.6225 5.80327 93.0352 5.31605 93.5969 4.94815C94.1637 4.58026 94.8771 4.39631 95.7372 4.39631C96.5178 4.39631 97.2013 4.56037 97.788 4.88849C98.3746 5.21165 98.8295 5.69389 99.1527 6.33523C99.4759 6.97656 99.6374 7.76953 99.6374 8.71413V16H97.4077V8.9826C97.4077 8.15234 97.1914 7.50355 96.7589 7.03622C96.3263 6.56392 95.7322 6.32777 94.9766 6.32777C94.4595 6.32777 93.9996 6.43963 93.5969 6.66335C93.1992 6.88707 92.8835 7.2152 92.6499 7.64773C92.4212 8.07528 92.3068 8.59233 92.3068 9.19886ZM107.975 4.54545V6.33523H101.718V4.54545H107.975ZM103.396 1.80114H105.626V12.6367C105.626 13.0692 105.69 13.3949 105.82 13.6136C105.949 13.8274 106.115 13.9741 106.319 14.0536C106.528 14.1282 106.754 14.1655 106.998 14.1655C107.177 14.1655 107.333 14.1531 107.468 14.1282C107.602 14.1033 107.706 14.0835 107.781 14.0685L108.184 15.9105C108.054 15.9602 107.87 16.0099 107.632 16.0597C107.393 16.1143 107.095 16.1442 106.737 16.1491C106.15 16.1591 105.603 16.0547 105.096 15.8359C104.589 15.6172 104.179 15.2791 103.866 14.8217C103.553 14.3643 103.396 13.7901 103.396 13.0991V1.80114ZM115.143 16.2312C114.069 16.2312 113.132 15.9851 112.332 15.4929C111.531 15.0007 110.91 14.3121 110.467 13.4272C110.025 12.5423 109.804 11.5082 109.804 10.3249C109.804 9.13672 110.025 8.09766 110.467 7.20774C110.91 6.31783 111.531 5.62678 112.332 5.13459C113.132 4.6424 114.069 4.39631 115.143 4.39631C116.217 4.39631 117.154 4.6424 117.955 5.13459C118.755 5.62678 119.377 6.31783 119.819 7.20774C120.261 8.09766 120.483 9.13672 120.483 10.3249C120.483 11.5082 120.261 12.5423 119.819 13.4272C119.377 14.3121 118.755 15.0007 117.955 15.4929C117.154 15.9851 116.217 16.2312 115.143 16.2312ZM115.151 14.3594C115.847 14.3594 116.423 14.1754 116.881 13.8075C117.338 13.4396 117.676 12.9499 117.895 12.3384C118.119 11.7269 118.231 11.0533 118.231 10.3175C118.231 9.58665 118.119 8.91548 117.895 8.30398C117.676 7.6875 117.338 7.19283 116.881 6.81996C116.423 6.44709 115.847 6.26065 115.151 6.26065C114.45 6.26065 113.868 6.44709 113.406 6.81996C112.948 7.19283 112.608 7.6875 112.384 8.30398C112.165 8.91548 112.056 9.58665 112.056 10.3175C112.056 11.0533 112.165 11.7269 112.384 12.3384C112.608 12.9499 112.948 13.4396 113.406 13.8075C113.868 14.1754 114.45 14.3594 115.151 14.3594ZM122.972 16V4.54545H125.127V6.36506H125.246C125.455 5.74858 125.823 5.26385 126.35 4.91087C126.882 4.55291 127.483 4.37393 128.154 4.37393C128.294 4.37393 128.458 4.37891 128.647 4.38885C128.841 4.39879 128.992 4.41122 129.102 4.42614V6.55895C129.012 6.53409 128.853 6.50675 128.624 6.47692C128.396 6.44212 128.167 6.42472 127.938 6.42472C127.411 6.42472 126.941 6.53658 126.529 6.7603C126.121 6.97905 125.798 7.2848 125.559 7.67756C125.321 8.06534 125.201 8.50781 125.201 9.00497V16H122.972ZM131.21 16V0.727272H133.44V6.40234H133.574C133.703 6.16371 133.89 5.88778 134.133 5.57457C134.377 5.26136 134.715 4.98793 135.148 4.75426C135.58 4.51562 136.152 4.39631 136.863 4.39631C137.788 4.39631 138.613 4.62997 139.339 5.0973C140.065 5.56463 140.634 6.23828 141.046 7.11825C141.464 7.99822 141.673 9.05717 141.673 10.2951C141.673 11.533 141.467 12.5945 141.054 13.4794C140.641 14.3594 140.074 15.038 139.354 15.5153C138.633 15.9876 137.81 16.2237 136.885 16.2237C136.189 16.2237 135.62 16.1069 135.177 15.8732C134.74 15.6396 134.397 15.3661 134.148 15.0529C133.9 14.7397 133.708 14.4613 133.574 14.2177H133.388V16H131.21ZM133.395 10.2727C133.395 11.0781 133.512 11.7841 133.746 12.3906C133.979 12.9972 134.317 13.4719 134.76 13.815C135.202 14.1531 135.744 14.3221 136.386 14.3221C137.052 14.3221 137.609 14.1456 138.056 13.7926C138.503 13.4347 138.842 12.9499 139.07 12.3384C139.304 11.7269 139.421 11.0384 139.421 10.2727C139.421 9.51705 139.306 8.83842 139.078 8.23686C138.854 7.6353 138.516 7.16051 138.063 6.8125C137.616 6.46449 137.057 6.29048 136.386 6.29048C135.739 6.29048 135.192 6.45703 134.745 6.79013C134.302 7.12322 133.967 7.58807 133.738 8.18466C133.509 8.78125 133.395 9.47727 133.395 10.2727ZM144.177 16V4.54545H146.332V6.36506H146.451C146.66 5.74858 147.028 5.26385 147.555 4.91087C148.087 4.55291 148.688 4.37393 149.36 4.37393C149.499 4.37393 149.663 4.37891 149.852 4.38885C150.046 4.39879 150.197 4.41122 150.307 4.42614V6.55895C150.217 6.53409 150.058 6.50675 149.829 6.47692C149.601 6.44212 149.372 6.42472 149.143 6.42472C148.616 6.42472 148.146 6.53658 147.734 6.7603C147.326 6.97905 147.003 7.2848 146.764 7.67756C146.526 8.06534 146.406 8.50781 146.406 9.00497V16H144.177ZM152.236 16V4.54545H154.466V16H152.236ZM153.362 2.77805C152.975 2.77805 152.641 2.64879 152.363 2.39027C152.09 2.12677 151.953 1.81356 151.953 1.45064C151.953 1.08274 152.09 0.769531 152.363 0.511008C152.641 0.247514 152.975 0.115767 153.362 0.115767C153.75 0.115767 154.081 0.247514 154.354 0.511008C154.633 0.769531 154.772 1.08274 154.772 1.45064C154.772 1.81356 154.633 2.12677 154.354 2.39027C154.081 2.64879 153.75 2.77805 153.362 2.77805ZM161.754 16.2237C160.829 16.2237 160.004 15.9876 159.278 15.5153C158.557 15.038 157.99 14.3594 157.578 13.4794C157.17 12.5945 156.966 11.533 156.966 10.2951C156.966 9.05717 157.172 7.99822 157.585 7.11825C158.003 6.23828 158.574 5.56463 159.3 5.0973C160.026 4.62997 160.849 4.39631 161.769 4.39631C162.48 4.39631 163.051 4.51562 163.484 4.75426C163.921 4.98793 164.259 5.26136 164.498 5.57457C164.742 5.88778 164.931 6.16371 165.065 6.40234H165.199V0.727272H167.429V16H165.251V14.2177H165.065C164.931 14.4613 164.737 14.7397 164.483 15.0529C164.235 15.3661 163.892 15.6396 163.454 15.8732C163.017 16.1069 162.45 16.2237 161.754 16.2237ZM162.246 14.3221C162.887 14.3221 163.429 14.1531 163.872 13.815C164.319 13.4719 164.657 12.9972 164.886 12.3906C165.119 11.7841 165.236 11.0781 165.236 10.2727C165.236 9.47727 165.122 8.78125 164.893 8.18466C164.665 7.58807 164.329 7.12322 163.887 6.79013C163.444 6.45703 162.897 6.29048 162.246 6.29048C161.575 6.29048 161.015 6.46449 160.568 6.8125C160.121 7.16051 159.782 7.6353 159.554 8.23686C159.33 8.83842 159.218 9.51705 159.218 10.2727C159.218 11.0384 159.333 11.7269 159.561 12.3384C159.79 12.9499 160.128 13.4347 160.575 13.7926C161.028 14.1456 161.585 14.3221 162.246 14.3221ZM175.414 20.5341C174.504 20.5341 173.721 20.4148 173.065 20.1761C172.413 19.9375 171.881 19.6218 171.469 19.229C171.056 18.8363 170.748 18.4063 170.544 17.9389L172.461 17.1484C172.595 17.3672 172.774 17.5984 172.998 17.842C173.226 18.0906 173.535 18.3018 173.922 18.4759C174.315 18.6499 174.82 18.7369 175.436 18.7369C176.281 18.7369 176.98 18.5305 177.532 18.1179C178.084 17.7102 178.359 17.0589 178.359 16.1641V13.9119H178.218C178.084 14.1555 177.89 14.4265 177.636 14.7248C177.388 15.0231 177.044 15.2816 176.607 15.5004C176.169 15.7191 175.6 15.8285 174.899 15.8285C173.994 15.8285 173.179 15.6172 172.453 15.1946C171.732 14.767 171.161 14.1381 170.738 13.3079C170.32 12.4727 170.112 11.446 170.112 10.228C170.112 9.00994 170.318 7.96591 170.731 7.09588C171.148 6.22585 171.72 5.55966 172.446 5.0973C173.172 4.62997 173.994 4.39631 174.914 4.39631C175.625 4.39631 176.199 4.51562 176.637 4.75426C177.074 4.98793 177.415 5.26136 177.658 5.57457C177.907 5.88778 178.098 6.16371 178.233 6.40234H178.397V4.54545H180.582V16.2536C180.582 17.2379 180.353 18.0458 179.896 18.6772C179.438 19.3086 178.819 19.7759 178.039 20.0792C177.263 20.3825 176.388 20.5341 175.414 20.5341ZM175.391 13.979C176.033 13.979 176.575 13.8299 177.017 13.5316C177.465 13.2283 177.803 12.7958 178.031 12.234C178.265 11.6673 178.382 10.9886 178.382 10.1982C178.382 9.42756 178.267 8.74893 178.039 8.16229C177.81 7.57564 177.475 7.11825 177.032 6.79013C176.59 6.45703 176.043 6.29048 175.391 6.29048C174.72 6.29048 174.161 6.46449 173.714 6.8125C173.266 7.15554 172.928 7.62287 172.699 8.21449C172.476 8.80611 172.364 9.46733 172.364 10.1982C172.364 10.9489 172.478 11.6076 172.707 12.1744C172.935 12.7411 173.274 13.1836 173.721 13.5018C174.173 13.82 174.73 13.979 175.391 13.979ZM188.509 16.2312C187.38 16.2312 186.408 15.9901 185.593 15.5078C184.783 15.0206 184.156 14.337 183.714 13.457C183.276 12.5721 183.058 11.5355 183.058 10.3473C183.058 9.17401 183.276 8.13991 183.714 7.24503C184.156 6.35014 184.773 5.65163 185.563 5.1495C186.359 4.64737 187.288 4.39631 188.352 4.39631C188.999 4.39631 189.625 4.5032 190.232 4.71697C190.838 4.93075 191.383 5.26633 191.865 5.72372C192.347 6.18111 192.727 6.77521 193.006 7.50604C193.284 8.23189 193.423 9.11435 193.423 10.1534V10.9439H184.318V9.27344H191.238C191.238 8.68679 191.119 8.16726 190.88 7.71484C190.642 7.25746 190.306 6.89702 189.874 6.63352C189.446 6.37003 188.944 6.23828 188.367 6.23828C187.741 6.23828 187.194 6.3924 186.727 6.70064C186.264 7.00391 185.906 7.40163 185.653 7.89382C185.404 8.38104 185.28 8.91051 185.28 9.48224V10.7873C185.28 11.5529 185.414 12.2042 185.683 12.7411C185.956 13.2781 186.336 13.6882 186.824 13.9716C187.311 14.25 187.88 14.3892 188.531 14.3892C188.954 14.3892 189.339 14.3295 189.687 14.2102C190.035 14.0859 190.336 13.902 190.59 13.6584C190.843 13.4148 191.037 13.114 191.171 12.756L193.282 13.1364C193.113 13.7578 192.809 14.3022 192.372 14.7695C191.939 15.2319 191.395 15.5923 190.739 15.8509C190.087 16.1044 189.344 16.2312 188.509 16.2312ZM197.366 16.1417C196.959 16.1417 196.608 15.9975 196.315 15.7092C196.022 15.4158 195.875 15.0629 195.875 14.6502C195.875 14.2425 196.022 13.8945 196.315 13.6062C196.608 13.3129 196.959 13.1662 197.366 13.1662C197.774 13.1662 198.125 13.3129 198.418 13.6062C198.711 13.8945 198.858 14.2425 198.858 14.6502C198.858 14.9237 198.788 15.1747 198.649 15.4034C198.515 15.6271 198.336 15.8061 198.112 15.9403C197.888 16.0746 197.64 16.1417 197.366 16.1417ZM208.625 16H206.179L211.675 0.727272H214.338L219.834 16H217.388L213.07 3.50142H212.951L208.625 16ZM209.035 10.0192H216.97V11.9581H209.035V10.0192ZM224.09 0.727272V16H221.86V0.727272H224.09ZM229.32 0.727272V16H227.09V0.727272H229.32ZM238.056 16V0.727272H243.5C244.683 0.727272 245.665 0.931107 246.445 1.33878C247.231 1.74645 247.818 2.31072 248.205 3.0316C248.593 3.74751 248.787 4.57528 248.787 5.51491C248.787 6.44957 248.591 7.27237 248.198 7.98331C247.81 8.68928 247.223 9.23864 246.438 9.63139C245.657 10.0241 244.676 10.2205 243.492 10.2205H239.368V8.23686H243.283C244.029 8.23686 244.636 8.12997 245.103 7.91619C245.575 7.70241 245.921 7.39169 246.14 6.98402C246.358 6.57635 246.468 6.08665 246.468 5.51491C246.468 4.93821 246.356 4.43856 246.132 4.01598C245.913 3.59339 245.568 3.27024 245.096 3.04652C244.628 2.81783 244.014 2.70348 243.254 2.70348H240.36V16H238.056ZM245.595 9.10938L249.369 16H246.744L243.045 9.10938H245.595ZM251.412 16V4.54545H253.642V16H251.412ZM252.538 2.77805C252.15 2.77805 251.817 2.64879 251.539 2.39027C251.265 2.12677 251.129 1.81356 251.129 1.45064C251.129 1.08274 251.265 0.769531 251.539 0.511008C251.817 0.247514 252.15 0.115767 252.538 0.115767C252.926 0.115767 253.256 0.247514 253.53 0.511008C253.808 0.769531 253.948 1.08274 253.948 1.45064C253.948 1.81356 253.808 2.12677 253.53 2.39027C253.256 2.64879 252.926 2.77805 252.538 2.77805ZM261.444 20.5341C260.534 20.5341 259.751 20.4148 259.095 20.1761C258.444 19.9375 257.912 19.6218 257.499 19.229C257.086 18.8363 256.778 18.4063 256.574 17.9389L258.491 17.1484C258.625 17.3672 258.804 17.5984 259.028 17.842C259.257 18.0906 259.565 18.3018 259.953 18.4759C260.345 18.6499 260.85 18.7369 261.466 18.7369C262.312 18.7369 263.01 18.5305 263.562 18.1179C264.114 17.7102 264.39 17.0589 264.39 16.1641V13.9119H264.248C264.114 14.1555 263.92 14.4265 263.666 14.7248C263.418 15.0231 263.075 15.2816 262.637 15.5004C262.2 15.7191 261.631 15.8285 260.93 15.8285C260.025 15.8285 259.209 15.6172 258.483 15.1946C257.763 14.767 257.191 14.1381 256.768 13.3079C256.351 12.4727 256.142 11.446 256.142 10.228C256.142 9.00994 256.348 7.96591 256.761 7.09588C257.178 6.22585 257.75 5.55966 258.476 5.0973C259.202 4.62997 260.025 4.39631 260.944 4.39631C261.655 4.39631 262.23 4.51562 262.667 4.75426C263.105 4.98793 263.445 5.26136 263.689 5.57457C263.937 5.88778 264.129 6.16371 264.263 6.40234H264.427V4.54545H266.612V16.2536C266.612 17.2379 266.383 18.0458 265.926 18.6772C265.469 19.3086 264.85 19.7759 264.069 20.0792C263.294 20.3825 262.419 20.5341 261.444 20.5341ZM261.422 13.979C262.063 13.979 262.605 13.8299 263.047 13.5316C263.495 13.2283 263.833 12.7958 264.062 12.234C264.295 11.6673 264.412 10.9886 264.412 10.1982C264.412 9.42756 264.298 8.74893 264.069 8.16229C263.84 7.57564 263.505 7.11825 263.062 6.79013C262.62 6.45703 262.073 6.29048 261.422 6.29048C260.751 6.29048 260.191 6.46449 259.744 6.8125C259.296 7.15554 258.958 7.62287 258.73 8.21449C258.506 8.80611 258.394 9.46733 258.394 10.1982C258.394 10.9489 258.508 11.6076 258.737 12.1744C258.966 12.7411 259.304 13.1836 259.751 13.5018C260.204 13.82 260.76 13.979 261.422 13.979ZM271.832 9.19886V16H269.602V0.727272H271.802V6.4098H271.944C272.213 5.79332 272.623 5.30362 273.175 4.9407C273.726 4.57777 274.447 4.39631 275.337 4.39631C276.123 4.39631 276.809 4.55788 277.395 4.88104C277.987 5.20419 278.444 5.68643 278.768 6.32777C279.096 6.96413 279.26 7.75959 279.26 8.71413V16H277.03V8.9826C277.03 8.1424 276.814 7.49112 276.381 7.02876C275.949 6.56143 275.347 6.32777 274.577 6.32777C274.05 6.32777 273.577 6.43963 273.16 6.66335C272.747 6.88707 272.421 7.2152 272.183 7.64773C271.949 8.07528 271.832 8.59233 271.832 9.19886ZM287.582 4.54545V6.33523H281.325V4.54545H287.582ZM283.003 1.80114H285.233V12.6367C285.233 13.0692 285.298 13.3949 285.427 13.6136C285.556 13.8274 285.723 13.9741 285.927 14.0536C286.135 14.1282 286.362 14.1655 286.605 14.1655C286.784 14.1655 286.941 14.1531 287.075 14.1282C287.209 14.1033 287.314 14.0835 287.388 14.0685L287.791 15.9105C287.662 15.9602 287.478 16.0099 287.239 16.0597C287.001 16.1143 286.702 16.1442 286.344 16.1491C285.758 16.1591 285.211 16.0547 284.704 15.8359C284.197 15.6172 283.786 15.2791 283.473 14.8217C283.16 14.3643 283.003 13.7901 283.003 13.0991V1.80114ZM298.448 7.34197L296.427 7.69993C296.342 7.44141 296.208 7.19531 296.024 6.96165C295.845 6.72798 295.601 6.53658 295.293 6.38743C294.985 6.23828 294.6 6.16371 294.137 6.16371C293.506 6.16371 292.979 6.3054 292.556 6.58878C292.134 6.86719 291.922 7.22763 291.922 7.6701C291.922 8.05291 292.064 8.36115 292.347 8.59482C292.631 8.82848 293.088 9.01989 293.72 9.16903L295.539 9.58665C296.593 9.83026 297.379 10.2056 297.896 10.7127C298.413 11.2198 298.671 11.8786 298.671 12.6889C298.671 13.375 298.472 13.9865 298.075 14.5234C297.682 15.0554 297.133 15.473 296.427 15.7763C295.726 16.0795 294.913 16.2312 293.988 16.2312C292.705 16.2312 291.659 15.9577 290.849 15.4109C290.038 14.859 289.541 14.076 289.357 13.0618L291.512 12.7337C291.646 13.2955 291.922 13.7205 292.34 14.0089C292.758 14.2923 293.302 14.4339 293.973 14.4339C294.704 14.4339 295.288 14.2823 295.726 13.979C296.163 13.6708 296.382 13.2955 296.382 12.853C296.382 12.495 296.248 12.1942 295.979 11.9506C295.716 11.707 295.311 11.5231 294.764 11.3988L292.825 10.9737C291.756 10.7301 290.965 10.3423 290.453 9.81037C289.946 9.27841 289.693 8.60476 289.693 7.78942C289.693 7.11328 289.882 6.52166 290.259 6.01456C290.637 5.50746 291.159 5.11222 291.825 4.82883C292.492 4.54048 293.255 4.39631 294.115 4.39631C295.353 4.39631 296.327 4.66477 297.038 5.2017C297.749 5.73366 298.219 6.44709 298.448 7.34197ZM306.86 16V0.727272H312.303C313.487 0.727272 314.469 0.931107 315.249 1.33878C316.035 1.74645 316.621 2.31072 317.009 3.0316C317.397 3.74751 317.591 4.57528 317.591 5.51491C317.591 6.44957 317.394 7.27237 317.002 7.98331C316.614 8.68928 316.027 9.23864 315.242 9.63139C314.461 10.0241 313.479 10.2205 312.296 10.2205H308.172V8.23686H312.087C312.833 8.23686 313.439 8.12997 313.907 7.91619C314.379 7.70241 314.725 7.39169 314.943 6.98402C315.162 6.57635 315.271 6.08665 315.271 5.51491C315.271 4.93821 315.16 4.43856 314.936 4.01598C314.717 3.59339 314.372 3.27024 313.899 3.04652C313.432 2.81783 312.818 2.70348 312.057 2.70348H309.164V16H306.86ZM314.399 9.10938L318.172 16H315.547L311.849 9.10938H314.399ZM325.009 16.2312C323.88 16.2312 322.908 15.9901 322.093 15.5078C321.283 15.0206 320.656 14.337 320.214 13.457C319.776 12.5721 319.558 11.5355 319.558 10.3473C319.558 9.17401 319.776 8.13991 320.214 7.24503C320.656 6.35014 321.273 5.65163 322.063 5.1495C322.859 4.64737 323.788 4.39631 324.852 4.39631C325.499 4.39631 326.125 4.5032 326.732 4.71697C327.338 4.93075 327.883 5.26633 328.365 5.72372C328.847 6.18111 329.227 6.77521 329.506 7.50604C329.784 8.23189 329.923 9.11435 329.923 10.1534V10.9439H320.818V9.27344H327.738C327.738 8.68679 327.619 8.16726 327.38 7.71484C327.142 7.25746 326.806 6.89702 326.374 6.63352C325.946 6.37003 325.444 6.23828 324.867 6.23828C324.241 6.23828 323.694 6.3924 323.227 6.70064C322.764 7.00391 322.406 7.40163 322.153 7.89382C321.904 8.38104 321.78 8.91051 321.78 9.48224V10.7873C321.78 11.5529 321.914 12.2042 322.183 12.7411C322.456 13.2781 322.836 13.6882 323.324 13.9716C323.811 14.25 324.38 14.3892 325.031 14.3892C325.454 14.3892 325.839 14.3295 326.187 14.2102C326.535 14.0859 326.836 13.902 327.09 13.6584C327.343 13.4148 327.537 13.114 327.671 12.756L329.782 13.1364C329.613 13.7578 329.309 14.3022 328.872 14.7695C328.439 15.2319 327.895 15.5923 327.239 15.8509C326.587 16.1044 325.844 16.2312 325.009 16.2312ZM340.981 7.34197L338.96 7.69993C338.875 7.44141 338.741 7.19531 338.557 6.96165C338.378 6.72798 338.135 6.53658 337.826 6.38743C337.518 6.23828 337.133 6.16371 336.67 6.16371C336.039 6.16371 335.512 6.3054 335.089 6.58878C334.667 6.86719 334.456 7.22763 334.456 7.6701C334.456 8.05291 334.597 8.36115 334.881 8.59482C335.164 8.82848 335.621 9.01989 336.253 9.16903L338.072 9.58665C339.126 9.83026 339.912 10.2056 340.429 10.7127C340.946 11.2198 341.205 11.8786 341.205 12.6889C341.205 13.375 341.006 13.9865 340.608 14.5234C340.215 15.0554 339.666 15.473 338.96 15.7763C338.259 16.0795 337.446 16.2312 336.521 16.2312C335.239 16.2312 334.192 15.9577 333.382 15.4109C332.571 14.859 332.074 14.076 331.89 13.0618L334.045 12.7337C334.18 13.2955 334.456 13.7205 334.873 14.0089C335.291 14.2923 335.835 14.4339 336.506 14.4339C337.237 14.4339 337.821 14.2823 338.259 13.979C338.696 13.6708 338.915 13.2955 338.915 12.853C338.915 12.495 338.781 12.1942 338.512 11.9506C338.249 11.707 337.844 11.5231 337.297 11.3988L335.358 10.9737C334.289 10.7301 333.499 10.3423 332.987 9.81037C332.479 9.27841 332.226 8.60476 332.226 7.78942C332.226 7.11328 332.415 6.52166 332.793 6.01456C333.17 5.50746 333.692 5.11222 334.359 4.82883C335.025 4.54048 335.788 4.39631 336.648 4.39631C337.886 4.39631 338.86 4.66477 339.571 5.2017C340.282 5.73366 340.752 6.44709 340.981 7.34197ZM348.593 16.2312C347.464 16.2312 346.492 15.9901 345.677 15.5078C344.867 15.0206 344.24 14.337 343.798 13.457C343.36 12.5721 343.142 11.5355 343.142 10.3473C343.142 9.17401 343.36 8.13991 343.798 7.24503C344.24 6.35014 344.857 5.65163 345.647 5.1495C346.443 4.64737 347.372 4.39631 348.436 4.39631C349.083 4.39631 349.709 4.5032 350.316 4.71697C350.922 4.93075 351.467 5.26633 351.949 5.72372C352.431 6.18111 352.811 6.77521 353.09 7.50604C353.368 8.23189 353.507 9.11435 353.507 10.1534V10.9439H344.402V9.27344H351.322C351.322 8.68679 351.203 8.16726 350.964 7.71484C350.726 7.25746 350.39 6.89702 349.958 6.63352C349.53 6.37003 349.028 6.23828 348.451 6.23828C347.825 6.23828 347.278 6.3924 346.811 6.70064C346.348 7.00391 345.99 7.40163 345.737 7.89382C345.488 8.38104 345.364 8.91051 345.364 9.48224V10.7873C345.364 11.5529 345.498 12.2042 345.767 12.7411C346.04 13.2781 346.42 13.6882 346.908 13.9716C347.395 14.25 347.964 14.3892 348.615 14.3892C349.038 14.3892 349.423 14.3295 349.771 14.2102C350.119 14.0859 350.42 13.902 350.674 13.6584C350.927 13.4148 351.121 13.114 351.255 12.756L353.366 13.1364C353.197 13.7578 352.893 14.3022 352.456 14.7695C352.023 15.2319 351.479 15.5923 350.823 15.8509C350.171 16.1044 349.428 16.2312 348.593 16.2312ZM355.981 16V4.54545H358.137V6.36506H358.256C358.465 5.74858 358.833 5.26385 359.36 4.91087C359.892 4.55291 360.493 4.37393 361.164 4.37393C361.303 4.37393 361.468 4.37891 361.656 4.38885C361.85 4.39879 362.002 4.41122 362.111 4.42614V6.55895C362.022 6.53409 361.863 6.50675 361.634 6.47692C361.405 6.44212 361.177 6.42472 360.948 6.42472C360.421 6.42472 359.951 6.53658 359.539 6.7603C359.131 6.97905 358.808 7.2848 358.569 7.67756C358.33 8.06534 358.211 8.50781 358.211 9.00497V16H355.981ZM374.189 4.54545L370.035 16H367.648L363.487 4.54545H365.881L368.782 13.3601H368.901L371.795 4.54545H374.189ZM380.831 16.2312C379.703 16.2312 378.731 15.9901 377.915 15.5078C377.105 15.0206 376.479 14.337 376.036 13.457C375.599 12.5721 375.38 11.5355 375.38 10.3473C375.38 9.17401 375.599 8.13991 376.036 7.24503C376.479 6.35014 377.095 5.65163 377.886 5.1495C378.681 4.64737 379.611 4.39631 380.675 4.39631C381.321 4.39631 381.947 4.5032 382.554 4.71697C383.16 4.93075 383.705 5.26633 384.187 5.72372C384.669 6.18111 385.05 6.77521 385.328 7.50604C385.606 8.23189 385.746 9.11435 385.746 10.1534V10.9439H376.64V9.27344H383.561C383.561 8.68679 383.441 8.16726 383.203 7.71484C382.964 7.25746 382.628 6.89702 382.196 6.63352C381.768 6.37003 381.266 6.23828 380.69 6.23828C380.063 6.23828 379.516 6.3924 379.049 6.70064C378.587 7.00391 378.229 7.40163 377.975 7.89382C377.726 8.38104 377.602 8.91051 377.602 9.48224V10.7873C377.602 11.5529 377.736 12.2042 378.005 12.7411C378.278 13.2781 378.659 13.6882 379.146 13.9716C379.633 14.25 380.202 14.3892 380.854 14.3892C381.276 14.3892 381.661 14.3295 382.009 14.2102C382.358 14.0859 382.658 13.902 382.912 13.6584C383.165 13.4148 383.359 13.114 383.494 12.756L385.604 13.1364C385.435 13.7578 385.132 14.3022 384.694 14.7695C384.262 15.2319 383.717 15.5923 383.061 15.8509C382.41 16.1044 381.666 16.2312 380.831 16.2312ZM392.508 16.2237C391.583 16.2237 390.758 15.9876 390.032 15.5153C389.311 15.038 388.744 14.3594 388.331 13.4794C387.924 12.5945 387.72 11.533 387.72 10.2951C387.72 9.05717 387.926 7.99822 388.339 7.11825C388.757 6.23828 389.328 5.56463 390.054 5.0973C390.78 4.62997 391.603 4.39631 392.523 4.39631C393.233 4.39631 393.805 4.51562 394.238 4.75426C394.675 4.98793 395.013 5.26136 395.252 5.57457C395.496 5.88778 395.684 6.16371 395.819 6.40234H395.953V0.727272H398.183V16H396.005V14.2177H395.819C395.684 14.4613 395.491 14.7397 395.237 15.0529C394.988 15.3661 394.645 15.6396 394.208 15.8732C393.77 16.1069 393.204 16.2237 392.508 16.2237ZM393 14.3221C393.641 14.3221 394.183 14.1531 394.626 13.815C395.073 13.4719 395.411 12.9972 395.64 12.3906C395.873 11.7841 395.99 11.0781 395.99 10.2727C395.99 9.47727 395.876 8.78125 395.647 8.18466C395.419 7.58807 395.083 7.12322 394.64 6.79013C394.198 6.45703 393.651 6.29048 393 6.29048C392.329 6.29048 391.769 6.46449 391.322 6.8125C390.874 7.16051 390.536 7.6353 390.308 8.23686C390.084 8.83842 389.972 9.51705 389.972 10.2727C389.972 11.0384 390.086 11.7269 390.315 12.3384C390.544 12.9499 390.882 13.4347 391.329 13.7926C391.782 14.1456 392.339 14.3221 393 14.3221ZM402.834 16.1417C402.427 16.1417 402.076 15.9975 401.783 15.7092C401.489 15.4158 401.343 15.0629 401.343 14.6502C401.343 14.2425 401.489 13.8945 401.783 13.6062C402.076 13.3129 402.427 13.1662 402.834 13.1662C403.242 13.1662 403.592 13.3129 403.886 13.6062C404.179 13.8945 404.326 14.2425 404.326 14.6502C404.326 14.9237 404.256 15.1747 404.117 15.4034C403.983 15.6271 403.804 15.8061 403.58 15.9403C403.356 16.0746 403.108 16.1417 402.834 16.1417Z" fill="#F5F5F5"/>
<path d="M76.2529 20.1761H205.663V21.608H76.2529V20.1761Z" fill="#F5F5F5"/>
</svg>
