<svg xmlns="http://www.w3.org/2000/svg" width="45" height="45" viewBox="0 0 45 45" fill="none">
  <path d="M42.7886 0H1.78286C0.796714 0 0 0.796714 0 1.78286V42.7886C0 43.7747 0.796714 44.5714 1.78286 44.5714H42.7886C43.7747 44.5714 44.5714 43.7747 44.5714 42.7886V1.78286C44.5714 0.796714 43.7747 0 42.7886 0ZM37.6406 13.0093H34.0804C31.2891 13.0093 30.7487 14.3353 30.7487 16.2853V20.5809H37.4121L36.543 27.3056H30.7487V44.5714H23.8011V27.3111H17.9901V20.5809H23.8011V15.6223C23.8011 9.867 27.3167 6.73029 32.4536 6.73029C34.9161 6.73029 37.0277 6.91414 37.6461 6.99771V13.0093H37.6406Z" fill="#F5F5F5"/>
</svg>