<svg xmlns="http://www.w3.org/2000/svg" width="45" height="45" viewBox="0 0 45 45" fill="none">
  <path d="M22.2705 14.8475C18.1801 14.8475 14.842 18.1856 14.842 22.2761C14.842 26.3665 18.1801 29.7046 22.2705 29.7046C26.3609 29.7046 29.699 26.3665 29.699 22.2761C29.699 18.1856 26.3609 14.8475 22.2705 14.8475ZM44.5505 22.2761C44.5505 19.1999 44.5783 16.1516 44.4056 13.081C44.2328 9.51439 43.4192 6.34905 40.8111 3.74099C38.1975 1.12736 35.0377 0.319306 31.4712 0.14655C28.395 -0.0262064 25.3467 0.00165759 22.2761 0.00165759C19.1999 0.00165759 16.1516 -0.0262064 13.081 0.14655C9.5144 0.319306 6.34906 1.13293 3.74099 3.74099C1.12736 6.35463 0.319306 9.51439 0.14655 13.081C-0.0262064 16.1571 0.00165759 19.2055 0.00165759 22.2761C0.00165759 25.3467 -0.0262064 28.4005 0.14655 31.4712C0.319306 35.0377 1.13293 38.2031 3.74099 40.8111C6.35463 43.4248 9.5144 44.2328 13.081 44.4056C16.1572 44.5783 19.2055 44.5505 22.2761 44.5505C25.3522 44.5505 28.4006 44.5783 31.4712 44.4056C35.0377 44.2328 38.2031 43.4192 40.8111 40.8111C43.4248 38.1975 44.2328 35.0377 44.4056 31.4712C44.5839 28.4005 44.5505 25.3522 44.5505 22.2761ZM22.2705 33.7058C15.9454 33.7058 10.8407 28.6012 10.8407 22.2761C10.8407 15.951 15.9454 10.8463 22.2705 10.8463C28.5956 10.8463 33.7003 15.951 33.7003 22.2761C33.7003 28.6012 28.5956 33.7058 22.2705 33.7058ZM34.1684 13.0475C32.6916 13.0475 31.499 11.855 31.499 10.3782C31.499 8.90139 32.6916 7.70881 34.1684 7.70881C35.6452 7.70881 36.8377 8.90139 36.8377 10.3782C36.8382 10.7288 36.7694 11.0762 36.6355 11.4002C36.5015 11.7243 36.3049 12.0187 36.0569 12.2667C35.8089 12.5146 35.5145 12.7112 35.1904 12.8452C34.8664 12.9792 34.5191 13.048 34.1684 13.0475Z" fill="#F5F5F5"/>
</svg>