<svg xmlns="http://www.w3.org/2000/svg" width="45" height="45" viewBox="0 0 45 45" fill="none">
  <path d="M42.7886 0H1.78286C0.796714 0 0 0.796714 0 1.78286V42.7886C0 43.7747 0.796714 44.5714 1.78286 44.5714H42.7886C43.7747 44.5714 44.5714 43.7747 44.5714 42.7886V1.78286C44.5714 0.796714 43.7747 0 42.7886 0ZM13.221 37.9804H6.60771V16.7087H13.221V37.9804ZM9.91714 13.8004C9.15902 13.8004 8.41792 13.5756 7.78756 13.1544C7.15721 12.7332 6.6659 12.1346 6.37578 11.4342C6.08566 10.7338 6.00975 9.96303 6.15765 9.21948C6.30556 8.47592 6.67063 7.79292 7.2067 7.25684C7.74278 6.72077 8.42578 6.3557 9.16933 6.2078C9.91289 6.05989 10.6836 6.1358 11.384 6.42592C12.0844 6.71604 12.6831 7.20735 13.1043 7.83771C13.5255 8.46806 13.7503 9.20916 13.7503 9.96729C13.7447 12.0844 12.0287 13.8004 9.91714 13.8004ZM37.9804 37.9804H31.3727V27.6343C31.3727 25.1661 31.3281 21.996 27.9351 21.996C24.4976 21.996 23.9683 24.6814 23.9683 27.456V37.9804H17.3661V16.7087H23.7064V19.617H23.7956C24.6759 17.9456 26.832 16.1794 30.0523 16.1794C36.7491 16.1794 37.9804 20.5864 37.9804 26.3139V37.9804Z" fill="#F5F5F5"/>
</svg>