<svg xmlns="http://www.w3.org/2000/svg" width="18" height="19" viewBox="0 0 18 19" fill="none">
  <path d="M14.0376 2.72706L12.4171 4.34765C14.3506 5.52118 15.6471 7.63353 15.6471 10.0588C15.6471 11.8373 14.9406 13.543 13.683 14.8006C12.4254 16.0582 10.7197 16.7647 8.94118 16.7647C7.16267 16.7647 5.457 16.0582 4.1994 14.8006C2.94181 13.543 2.23529 11.8373 2.23529 10.0588C2.23529 7.63353 3.53177 5.52118 5.45412 4.33647L3.84471 2.72706C1.52 4.33647 0 7.01882 0 10.0588C0 12.4302 0.942014 14.7044 2.61881 16.3812C4.29561 18.058 6.56983 19 8.94118 19C11.3125 19 13.5867 18.058 15.2635 16.3812C16.9403 14.7044 17.8824 12.4302 17.8824 10.0588C17.8824 7.01882 16.3624 4.33647 14.0376 2.72706ZM10.0588 0H7.82353V11.1765H10.0588" fill="black"/>
</svg>