<svg xmlns="http://www.w3.org/2000/svg" width="176" height="82" viewBox="0 0 176 82" fill="none">
  <path fill-rule="evenodd" clip-rule="evenodd" d="M9 0.423828H162V81.421H9V0.423828ZM12.3406 2.98703V78.8578H158.659V2.98703H12.3406Z" fill="#047E70"/>
  <path d="M0 25.3979H176V53.072H0V25.3979Z" fill="white"/>
  <path d="M28.0087 32.5635C28.2389 32.5635 28.5184 32.7216 28.8473 33.038C29.1927 33.3377 29.3653 33.5957 29.3653 33.8122C29.3653 34.8278 29.3324 36.218 29.2667 37.9828C29.2502 38.4157 29.2338 38.9402 29.2173 39.5562C29.2009 40.1556 29.1927 40.8549 29.1927 41.654C29.1927 44.1848 29.3407 46.0495 29.6367 47.2482C29.6202 47.6478 29.464 47.9392 29.168 48.1223C28.872 48.2888 28.576 48.3721 28.28 48.3721C27.6222 48.3721 27.1864 48.139 26.9727 47.6728C26.7753 47.2066 26.6767 46.5406 26.6767 45.6749C26.6767 42.4615 26.7096 39.5063 26.7753 36.8091C24.8842 38.9402 23.4124 40.73 22.36 42.1785C22.36 42.1785 22.212 42.2784 21.916 42.4782C21.6364 42.7279 21.4062 42.8528 21.2253 42.8528C20.7978 42.8528 20.4442 42.7446 20.1647 42.5281C19.8851 42.3117 19.6138 41.9954 19.3507 41.5791L18.1667 39.8809C17.3444 38.7154 16.7442 37.833 16.366 37.2336C16.366 38.7654 16.44 40.8465 16.588 43.4772C16.7031 44.9922 16.7607 46.1327 16.7607 46.8986C16.7607 47.2982 16.662 47.6395 16.4647 47.9225C16.2673 48.1889 15.9549 48.3221 15.5273 48.3221C15.0998 48.3221 14.7462 48.2389 14.4667 48.0724C14.2036 47.9059 14.0638 47.6562 14.0473 47.3232C14.0638 47.0401 14.072 46.5739 14.072 45.9246C14.072 44.626 14.0309 43.0443 13.9487 41.1795L13.8993 39.8309L13.85 38.0827C13.8336 37.5666 13.8171 36.9672 13.8007 36.2846C13.7842 35.5853 13.776 34.8278 13.776 34.012C13.776 33.013 14.3104 32.5135 15.3793 32.5135C15.7082 32.5135 16.0371 32.5968 16.366 32.7633C16.7113 32.9297 16.9662 33.1712 17.1307 33.4875C17.2622 34.0702 17.7473 35.0359 18.586 36.3845C19.4247 37.7331 20.2469 38.9985 21.0527 40.1806C21.7762 39.2482 22.3682 38.5489 22.8287 38.0827C23.618 37.2669 24.2676 36.5094 24.7773 35.8101C25.3036 35.1108 25.8709 34.27 26.4793 33.2877C26.6273 33.0879 26.8411 32.9214 27.1207 32.7882C27.4002 32.6384 27.6962 32.5635 28.0087 32.5635Z" fill="#047E70"/>
  <path d="M32.5013 43.0526C32.5013 42.4199 32.6164 41.7872 32.8466 41.1546C33.0768 40.5052 33.3811 39.9142 33.7593 39.3814C34.1375 38.8486 34.7377 38.4157 35.5599 38.0827C36.3822 37.7331 37.1139 37.5583 37.7553 37.5583C38.4131 37.5583 39.0791 37.6499 39.7533 37.833C40.4439 38.0161 40.9208 38.2992 41.1839 38.6821C41.7924 39.5479 42.0966 40.397 42.0966 41.2295C42.0966 41.679 41.9979 42.062 41.8006 42.3783C41.6197 42.6946 41.3566 43.0359 41.0113 43.4022C40.7317 43.7019 40.2877 43.9017 39.6793 44.0016C39.0873 44.1015 38.4953 44.1515 37.9033 44.1515C37.5251 44.1515 37.0646 44.1182 36.5219 44.0516C35.9793 43.9683 35.4531 43.8684 34.9433 43.7519C34.9762 44.0849 35.0584 44.4095 35.1899 44.7259C35.3215 45.0422 35.4777 45.2836 35.6586 45.4501C35.9875 45.7664 36.3246 45.9662 36.6699 46.0495C37.0317 46.1327 37.4922 46.1744 38.0513 46.1744C38.6433 46.1744 39.1942 46.0745 39.7039 45.8747C40.1151 45.7248 40.4522 45.6499 40.7153 45.6499C41.0277 45.6499 41.2662 45.7498 41.4306 45.9496C41.5951 46.1327 41.6773 46.3741 41.6773 46.6738C41.6773 47.0901 41.4388 47.4314 40.9619 47.6978C40.4851 47.9642 39.9342 48.164 39.3093 48.2972C38.7008 48.4137 38.2075 48.472 37.8293 48.472C37.0564 48.472 36.3082 48.3305 35.5846 48.0474C34.8611 47.7644 34.2608 47.3648 33.7839 46.8487C33.3893 46.3825 33.0768 45.8247 32.8466 45.1754C32.6164 44.5094 32.5013 43.8018 32.5013 43.0526ZM37.8786 39.6811C37.5168 39.6811 37.1551 39.756 36.7933 39.9059C36.4315 40.039 36.1355 40.2305 35.9053 40.4803C35.6093 40.7966 35.4037 41.0547 35.2886 41.2545C35.1899 41.4376 35.1242 41.6957 35.0913 42.0287C35.5024 42.1618 36.3575 42.2284 37.6566 42.2284C38.3637 42.2284 38.9064 42.1202 39.2846 41.9038C39.6793 41.6873 39.8766 41.4043 39.8766 41.0547C39.8766 40.705 39.6628 40.3887 39.2353 40.1056C38.8077 39.8226 38.3555 39.6811 37.8786 39.6811Z" fill="#047E70"/>
  <path d="M55.7018 46.4241C55.784 46.4574 55.9156 46.499 56.0965 46.549C56.2774 46.5989 56.4089 46.6489 56.4912 46.6988C56.5734 46.7488 56.6145 46.8237 56.6145 46.9236C56.6309 47.3232 56.4829 47.6562 56.1705 47.9225C55.8745 48.1723 55.5209 48.2972 55.1098 48.2972C54.4685 48.2972 53.9669 48.1223 53.6052 47.7727C53.2434 47.4231 52.9803 46.8903 52.8158 46.1744C52.75 45.8913 52.7172 45.5001 52.7172 45.0006C52.7172 44.7175 52.7336 44.2597 52.7665 43.627C52.7994 42.961 52.8158 42.4282 52.8158 42.0287C52.8158 41.4459 52.6514 40.9381 52.3225 40.5052C52.01 40.0557 51.566 39.8309 50.9905 39.8309C50.6452 39.8309 50.2834 39.9392 49.9052 40.1556C49.5269 40.3554 49.2638 40.6051 49.1158 40.9048C48.8692 41.3876 48.6965 41.9121 48.5978 42.4782C48.4169 43.4772 48.3265 44.5177 48.3265 45.6C48.3265 46.1161 48.3347 46.5157 48.3512 46.7987C48.3512 46.8653 48.3512 46.9985 48.3512 47.1983C48.3676 47.3814 48.3512 47.5563 48.3018 47.7228C48.2689 47.8726 48.2032 48.0141 48.1045 48.1473C48.0223 48.2306 47.8907 48.2972 47.7098 48.3471C47.5454 48.4137 47.3892 48.447 47.2412 48.447C47.0109 48.447 46.7232 48.3471 46.3778 48.1473C46.0325 47.9475 45.8352 47.7228 45.7858 47.473L45.7612 47.0484C45.7612 46.8986 45.7776 46.7238 45.8105 46.524C46.0078 45.3585 46.1065 44.3429 46.1065 43.4772C46.1065 43.0942 46.0983 42.7945 46.0818 42.5781L46.0572 41.4043C46.0572 41.0047 45.9585 40.6218 45.7612 40.2555C45.5638 39.8726 45.3336 39.6811 45.0705 39.6811C44.9883 39.6811 44.8732 39.7144 44.7252 39.781C44.5772 39.8309 44.4538 39.8559 44.3552 39.8559C44.1907 39.8559 44.0098 39.7727 43.8125 39.6062C43.6316 39.4397 43.5412 39.2648 43.5412 39.0817C43.5412 38.7321 43.6563 38.449 43.8865 38.2326C44.1332 38.0328 44.3716 37.8746 44.6018 37.7581C44.8485 37.6415 45.128 37.5833 45.4405 37.5833C45.7036 37.5833 45.9174 37.6082 46.0818 37.6582C46.2463 37.7081 46.4683 37.8164 46.7478 37.9828C46.8958 38.0661 47.0685 38.2492 47.2658 38.5323C47.4632 38.8153 47.6276 39.2149 47.7592 39.731C48.1867 38.9319 48.7129 38.3741 49.3378 38.0578C49.9792 37.7248 50.7932 37.5583 51.7798 37.5583C52.158 37.5583 52.5609 37.6832 52.9885 37.9329C53.4325 38.1826 53.8107 38.474 54.1232 38.807C54.4192 39.1733 54.6658 39.6311 54.8632 40.1806C55.0605 40.7133 55.1592 41.1962 55.1592 41.6291C55.1592 41.8788 55.1427 42.2867 55.1098 42.8528C55.0605 43.3023 55.0358 43.7768 55.0358 44.2763C55.0358 45.4418 55.2578 46.1577 55.7018 46.4241Z" fill="#047E70"/>
  <path d="M58.4011 39.6561C58.1709 39.6228 57.9818 39.5312 57.8338 39.3814C57.7022 39.2149 57.6364 39.0151 57.6364 38.782C57.6364 38.4823 57.7515 38.2326 57.9818 38.0328C58.0311 37.9828 58.1133 37.9412 58.2284 37.9079C58.3435 37.858 58.434 37.8164 58.4998 37.7831C58.8615 37.6665 59.0917 37.5749 59.1904 37.5083C59.5686 37.2752 59.8235 36.8923 59.9551 36.3595C60.0866 35.7269 60.1689 35.294 60.2018 35.0609C60.2346 34.6946 60.3498 34.4199 60.5471 34.2367C60.7609 34.0369 61.024 33.937 61.3364 33.937C61.7475 33.937 62.0353 34.0453 62.1998 34.2617C62.3642 34.4781 62.4464 34.8777 62.4464 35.4605C62.4464 36.2263 62.2655 36.9506 61.9038 37.6332C62.134 37.6332 62.5122 37.6166 63.0384 37.5833C63.8278 37.55 64.3786 37.5333 64.6911 37.5333C64.9706 37.5333 65.2091 37.6082 65.4064 37.7581C65.6202 37.8913 65.7271 38.0911 65.7271 38.3575C65.7271 38.9901 65.4393 39.3647 64.8638 39.4813C64.3375 39.6311 63.3838 39.7227 62.0024 39.756C61.8873 41.3876 61.8297 42.678 61.8297 43.627C61.8297 44.2097 61.8544 44.626 61.9038 44.8757C62.0024 45.3918 62.1669 45.7748 62.3971 46.0245C62.6438 46.2576 63.0055 46.3741 63.4824 46.3741C63.7126 46.3741 64.058 46.3159 64.5184 46.1993C64.798 46.1161 65.02 46.0745 65.1844 46.0745C65.3982 46.0745 65.5626 46.1494 65.6778 46.2992C65.7929 46.4491 65.8504 46.6489 65.8504 46.8986C65.8504 47.3481 65.5626 47.7228 64.9871 48.0224C64.4115 48.3055 63.7291 48.447 62.9397 48.447C62.4464 48.447 61.9613 48.3305 61.4844 48.0974C61.0075 47.8476 60.6046 47.5479 60.2758 47.1983C60.21 47.165 60.1113 46.9819 59.9798 46.6489C59.8646 46.3159 59.7495 45.9496 59.6344 45.55C59.5851 45.3502 59.5604 44.8674 59.5604 44.1015C59.5604 43.3689 59.6097 42.1036 59.7084 40.3054L59.7331 39.756C59.618 39.756 59.4042 39.7477 59.0918 39.731C58.7793 39.6977 58.5491 39.6728 58.4011 39.6561Z" fill="#047E70"/>
  <path d="M77.3457 40.3304C77.4772 40.5635 77.5841 40.9048 77.6663 41.3544C77.7486 41.7872 77.7897 42.1785 77.7897 42.5281C77.7897 42.9777 77.7403 43.4771 77.6417 44.0266C77.543 44.576 77.4526 45.0006 77.3703 45.3003C76.2357 47.3981 74.5583 48.447 72.3383 48.447C71.5161 48.447 70.6774 48.1723 69.8223 47.6229C68.9672 47.0734 68.3752 46.4407 68.0463 45.7248C67.6023 44.3096 67.3803 43.4022 67.3803 43.0026C67.3803 42.3367 67.5201 41.6291 67.7997 40.8798C68.0957 40.1306 68.4657 39.4813 68.9097 38.9319C69.2057 38.5489 69.7154 38.2243 70.439 37.9579C71.1626 37.6748 71.8203 37.5333 72.4123 37.5333C73.5634 37.5333 74.5337 37.7581 75.323 38.2076C76.1288 38.6405 76.803 39.3481 77.3457 40.3304ZM75.1997 44.3512C75.2819 44.1848 75.323 43.627 75.323 42.678C75.323 42.1951 75.2326 41.7206 75.0517 41.2545C74.8872 40.7883 74.6406 40.3887 74.3117 40.0557C74.2788 40.0224 74.1883 39.9724 74.0403 39.9059C73.8923 39.8226 73.6868 39.7477 73.4237 39.6811C73.177 39.5978 72.8892 39.5562 72.5603 39.5562C71.6394 39.5562 70.9652 39.9308 70.5377 40.68C70.1101 41.4293 69.8963 42.2784 69.8963 43.2274C69.8963 43.3773 69.9457 43.6853 70.0443 44.1515C70.143 44.6176 70.217 44.9173 70.2663 45.0505C70.3979 45.2836 70.661 45.5583 71.0557 45.8747C71.4668 46.1744 71.9108 46.3242 72.3877 46.3242C73.1277 46.3242 73.7114 46.1494 74.139 45.7997C74.583 45.4335 74.9366 44.9506 75.1997 44.3512Z" fill="#047E70"/>
  <path d="M83.5817 47.3481C83.5488 47.6312 83.4337 47.8809 83.2364 48.0974C83.039 48.3138 82.7842 48.422 82.4717 48.422C81.9784 48.422 81.6166 48.3305 81.3864 48.1473C81.1561 47.9475 81.041 47.5896 81.041 47.0734C81.041 46.3741 81.0821 45.6083 81.1644 44.7758C81.2301 43.8101 81.263 43.0692 81.263 42.5531C81.263 42.2867 81.2466 41.9537 81.2137 41.5541C81.1808 41.1879 81.1644 40.9131 81.1644 40.73C81.115 40.447 80.9999 40.2222 80.819 40.0557C80.6546 39.8892 80.3915 39.7477 80.0297 39.6311C79.8817 39.5645 79.7584 39.4563 79.6597 39.3065C79.561 39.14 79.5117 38.9901 79.5117 38.8569C79.5117 38.474 79.6597 38.1826 79.9557 37.9828C80.2517 37.7831 80.6135 37.6832 81.041 37.6832C81.5179 37.6832 81.929 37.8496 82.2744 38.1826C82.6197 38.5156 82.8828 38.9319 83.0637 39.4313C83.4419 38.8819 83.9024 38.4407 84.445 38.1077C85.0042 37.7747 85.5468 37.6082 86.073 37.6082C86.7473 37.6082 87.3146 37.7248 87.775 37.9579C88.2519 38.1743 88.4904 38.5572 88.4904 39.1067C88.4904 39.423 88.3506 39.756 88.071 40.1056C87.8079 40.4386 87.5366 40.6051 87.257 40.6051C87.0433 40.6051 86.7884 40.5052 86.4924 40.3054C86.3773 40.2222 86.2457 40.1556 86.0977 40.1056C85.9661 40.039 85.8264 40.0057 85.6784 40.0057C85.4153 40.0057 85.1686 40.0474 84.9384 40.1306C84.7081 40.2139 84.5519 40.3138 84.4697 40.4303C84.2066 40.8465 84.0093 41.2212 83.8777 41.5541C83.7626 41.8871 83.705 42.2451 83.705 42.628C83.705 42.9111 83.6968 43.1358 83.6804 43.3023L83.6557 44.7259L83.6804 45.6749C83.6804 46.3741 83.6475 46.9319 83.5817 47.3481Z" fill="#047E70"/>
  <path d="M105.611 39.9059C106.811 40.0557 107.699 40.447 108.275 41.0796C108.867 41.6957 109.163 42.4615 109.163 43.3773C109.163 44.293 108.826 45.1587 108.151 45.9746C107.494 46.7904 106.647 47.4231 105.611 47.8726C105.15 48.0557 104.542 48.1889 103.785 48.2722C103.045 48.3554 102.281 48.3971 101.491 48.3971C100.176 48.3971 98.8274 48.2722 97.4461 48.0224C97.1994 47.9725 96.9363 47.8476 96.6568 47.6478C96.3937 47.448 96.2621 47.1567 96.2621 46.7737C96.2457 45.242 96.1881 43.1109 96.0894 40.3804L96.0648 39.0068C95.999 36.8757 95.9661 35.2024 95.9661 33.987C95.9661 33.7705 96.0894 33.5208 96.3361 33.2378C96.5992 32.9381 96.9117 32.7716 97.2734 32.7383C97.4872 32.7383 97.6928 32.73 97.8901 32.7133C99.7483 32.5302 100.99 32.4386 101.615 32.4386C102.848 32.4386 103.933 32.5635 104.871 32.8132C105.825 33.0463 106.614 33.4792 107.239 34.1119C107.469 34.3782 107.658 34.7196 107.806 35.1358C107.954 35.5354 108.028 35.9266 108.028 36.3096C108.045 37.1254 107.831 37.8746 107.387 38.5572C106.959 39.2399 106.367 39.6894 105.611 39.9059ZM101.763 34.5614C101.204 34.5614 100.62 34.5947 100.011 34.6613C99.4194 34.7279 98.9179 34.8111 98.5068 34.911L98.6548 39.6311L99.5428 39.6062C100.973 39.4563 102.026 39.3314 102.7 39.2316C103.128 39.1317 103.547 38.9402 103.958 38.6571C104.369 38.3575 104.706 38.0494 104.969 37.7331C105.249 37.4001 105.389 37.1504 105.389 36.9839C105.389 36.7341 105.339 36.4844 105.241 36.2347C105.142 35.9683 105.035 35.7768 104.92 35.6603C104.476 35.2274 104.024 34.936 103.563 34.7862C103.103 34.6363 102.503 34.5614 101.763 34.5614ZM98.7288 46.1993C99.5674 46.3159 100.365 46.3741 101.121 46.3741C102.782 46.3741 104.09 46.1577 105.043 45.7248C106.014 45.2753 106.499 44.4262 106.499 43.1775C106.499 42.678 106.129 42.2617 105.389 41.9288C104.649 41.5958 103.851 41.4293 102.996 41.4293C102.421 41.4293 101.689 41.4959 100.801 41.6291C100.094 41.729 99.403 41.7956 98.7288 41.8289C98.7617 42.8278 98.7781 43.4605 98.7781 43.7269C98.7781 44.243 98.7699 44.6343 98.7534 44.9007L98.7288 46.1993Z" fill="#047E70"/>
  <path d="M115.095 47.3481C115.095 47.6312 114.988 47.8809 114.774 48.0974C114.56 48.3138 114.297 48.422 113.985 48.422C113.491 48.422 113.13 48.3305 112.899 48.1473C112.669 47.9475 112.554 47.5896 112.554 47.0734C112.554 46.4574 112.538 45.6499 112.505 44.6509C112.472 43.8185 112.455 43.1192 112.455 42.5531C112.455 42.2867 112.472 41.9371 112.505 41.5042C112.538 41.1046 112.554 40.8049 112.554 40.6051C112.505 40.2888 112.381 40.0307 112.184 39.8309C111.987 39.6145 111.732 39.5063 111.419 39.5063C111.271 39.5063 111.148 39.4397 111.049 39.3065C110.951 39.1566 110.901 39.0068 110.901 38.8569C110.901 38.474 111.049 38.1826 111.345 37.9828C111.658 37.7831 112.028 37.6832 112.455 37.6832C113.343 37.6832 113.96 38.2159 114.305 39.2815C114.733 38.782 115.218 38.3824 115.761 38.0827C116.32 37.7664 116.854 37.6082 117.364 37.6082C117.973 37.6082 118.523 37.7747 119.017 38.1077C119.527 38.4407 119.781 38.8902 119.781 39.4563C119.781 39.7727 119.642 40.0973 119.362 40.4303C119.099 40.7633 118.828 40.9298 118.548 40.9298C118.4 40.9298 118.268 40.8965 118.153 40.8299C118.055 40.7466 117.931 40.6301 117.783 40.4803C117.619 40.3138 117.479 40.1972 117.364 40.1306C117.249 40.0474 117.117 40.0057 116.969 40.0057C116.706 40.0057 116.46 40.0474 116.229 40.1306C115.999 40.2139 115.843 40.3138 115.761 40.4303C115.498 40.8465 115.3 41.2212 115.169 41.5541C115.054 41.8871 114.996 42.2451 114.996 42.628C114.996 42.9111 114.988 43.1358 114.971 43.3023L114.947 44.7259C114.947 44.9423 114.955 45.1837 114.971 45.4501C114.988 45.7165 115.004 45.9163 115.021 46.0495C115.07 46.499 115.095 46.9319 115.095 47.3481Z" fill="#047E70"/>
  <path d="M122.457 32.3137C123.032 32.3637 123.526 32.5218 123.937 32.7882C124.364 33.038 124.578 33.4209 124.578 33.937C124.578 34.32 124.405 34.628 124.06 34.8611C123.715 35.0775 123.287 35.1857 122.777 35.1857C122.301 35.1857 121.972 35.0609 121.791 34.8111C121.61 34.5614 121.519 34.3033 121.519 34.0369C121.519 33.5541 121.577 33.1462 121.692 32.8132C121.807 32.4636 122.062 32.2971 122.457 32.3137ZM121.963 42.628V41.9038C121.963 41.0713 121.922 40.3138 121.84 39.6311C121.774 38.9319 121.733 38.499 121.717 38.3325C121.733 38.1493 121.857 37.9745 122.087 37.808C122.317 37.6415 122.523 37.5583 122.703 37.5583C123.016 37.5583 123.328 37.6249 123.641 37.7581C123.97 37.8746 124.175 38.0245 124.257 38.2076C124.34 38.8236 124.381 39.2981 124.381 39.6311C124.381 40.3637 124.414 41.5625 124.479 43.2274L124.504 44.2014L124.553 45.1504C124.57 45.4168 124.586 45.7331 124.603 46.0994C124.619 46.4657 124.627 46.882 124.627 47.3481C124.627 47.6645 124.471 47.9309 124.159 48.1473C123.863 48.3638 123.55 48.472 123.221 48.472C122.745 48.472 122.407 48.3638 122.21 48.1473C122.029 47.9309 121.939 47.5896 121.939 47.1234L121.963 42.628Z" fill="#047E70"/>
  <path d="M137.723 48.2222C137.378 48.2222 137.049 48.1223 136.736 47.9225C136.44 47.7061 136.177 47.4813 135.947 47.2482C135.717 46.9985 135.561 46.832 135.478 46.7488C135.133 47.2482 134.632 47.6562 133.974 47.9725C133.316 48.2888 132.683 48.447 132.074 48.447C131.137 48.447 130.307 48.2472 129.583 47.8476C128.86 47.448 128.3 46.9069 127.906 46.2243C127.511 45.525 127.314 44.7508 127.314 43.9017C127.314 43.1025 127.404 42.3367 127.585 41.6041C127.782 40.8549 128.046 40.2305 128.374 39.731C128.818 39.0984 129.41 38.5989 130.15 38.2326C130.907 37.8663 131.655 37.6832 132.395 37.6832C132.839 37.6832 133.258 37.7664 133.653 37.9329C134.048 38.0994 134.393 38.3075 134.689 38.5572C134.689 37.4584 134.681 36.7674 134.664 36.4844V35.935C134.664 34.3699 134.763 33.2294 134.96 32.5135C135.141 31.8142 135.585 31.4646 136.292 31.4646C136.671 31.4646 136.95 31.5478 137.131 31.7143C137.312 31.8808 137.402 32.1972 137.402 32.6634C137.402 32.8299 137.361 33.2877 137.279 34.0369C137.098 35.9017 137.008 37.7664 137.008 39.6311C137.008 41.1962 137.032 42.3616 137.082 43.1275C137.148 43.8767 137.271 44.4761 137.452 44.9256C137.649 45.3752 137.953 45.7748 138.364 46.1244C138.611 46.3242 138.784 46.4907 138.882 46.6239C138.998 46.7571 139.055 46.9319 139.055 47.1483C139.055 47.4147 138.924 47.6645 138.66 47.8976C138.397 48.114 138.085 48.2222 137.723 48.2222ZM132 46.4241C132.872 46.4241 133.513 46.1494 133.924 45.6C134.352 45.0339 134.566 44.3179 134.566 43.4522L134.541 42.0536C134.525 41.7872 134.516 41.4293 134.516 40.9797C133.908 40.2472 133.25 39.8809 132.543 39.8809C132.066 39.8809 131.614 40.0057 131.186 40.2555C130.775 40.5052 130.438 40.8715 130.175 41.3544C129.896 41.9038 129.756 42.7363 129.756 43.8518C129.756 44.6176 129.978 45.242 130.422 45.7248C130.866 46.191 131.392 46.4241 132 46.4241Z" fill="#047E70"/>
  <path d="M142.562 47.9725C142.447 47.7227 142.389 47.4314 142.389 47.0984C142.389 46.7821 142.619 46.3076 143.08 45.6749C142.29 45.4085 141.665 44.934 141.205 44.2513C140.761 43.5687 140.539 42.7696 140.539 41.8538C140.539 41.2545 140.679 40.7133 140.958 40.2305C141.238 39.731 141.624 39.2565 142.118 38.807C142.956 38.0411 144.116 37.6582 145.596 37.6582C146.188 37.6582 146.919 37.7914 147.791 38.0578C148.827 37.1587 149.74 36.7092 150.529 36.7092C151.022 36.7092 151.376 36.8091 151.59 37.0089C151.82 37.192 151.935 37.5167 151.935 37.9828C151.935 38.166 151.861 38.3408 151.713 38.5073C151.581 38.6571 151.409 38.7321 151.195 38.7321L150.307 38.7071C149.748 38.7071 149.345 38.8153 149.098 39.0318C149.411 39.4147 149.666 39.9059 149.863 40.5052C150.077 41.1046 150.184 41.7872 150.184 42.5531C150.184 43.5687 149.493 44.5177 148.112 45.4002C147.257 45.8663 146.262 46.1078 145.127 46.1244C144.995 46.2576 144.88 46.3825 144.782 46.499C144.699 46.5989 144.658 46.6822 144.658 46.7488C144.658 46.9319 144.815 47.0734 145.127 47.1733C145.439 47.2732 145.916 47.3481 146.558 47.3981C147.035 47.4314 147.569 47.5396 148.161 47.7228C148.769 47.8892 149.246 48.0807 149.592 48.2972C150.019 48.6135 150.315 48.9548 150.48 49.3211C150.661 49.6874 150.751 50.1452 150.751 50.6947C150.751 51.4106 150.422 52.01 149.764 52.4928C149.123 52.9923 148.367 53.3586 147.495 53.5917C146.623 53.8248 145.859 53.9413 145.201 53.9413C144.412 53.9413 143.737 53.8414 143.178 53.6416C142.636 53.4585 142.118 53.2004 141.624 52.8674C141.279 52.6177 141.008 52.3013 140.81 51.9184C140.613 51.5355 140.514 51.1359 140.514 50.7196C140.514 50.3867 140.761 49.9371 141.254 49.371C141.764 48.805 142.257 48.4137 142.734 48.1973C142.685 48.1473 142.627 48.0724 142.562 47.9725ZM145.053 44.0765C145.826 44.0765 146.475 43.8684 147.002 43.4522C147.528 43.0193 147.791 42.4282 147.791 41.679C147.791 41.0796 147.618 40.6051 147.273 40.2555C146.928 39.8892 146.443 39.7061 145.818 39.7061C144.519 39.7061 143.672 39.9974 143.277 40.5802C143.178 40.7133 143.08 40.9714 142.981 41.3544C142.882 41.7206 142.833 42.0037 142.833 42.2035C142.833 42.4865 142.932 42.7779 143.129 43.0776C143.343 43.3606 143.622 43.602 143.968 43.8018C144.313 43.985 144.675 44.0765 145.053 44.0765ZM142.833 50.8945C142.833 51.1775 143.088 51.4189 143.598 51.6187C144.124 51.8352 144.683 51.9434 145.275 51.9434C145.933 51.9434 146.607 51.8185 147.298 51.5688C148.005 51.3357 148.358 51.0193 148.358 50.6197C148.358 50.037 147.849 49.6624 146.829 49.4959C145.711 49.2961 144.831 49.113 144.19 48.9465C144.124 49.1796 143.902 49.4793 143.524 49.8456C143.277 50.0953 143.096 50.2868 142.981 50.42C142.882 50.5698 142.833 50.728 142.833 50.8945Z" fill="#047E70"/>
  <path d="M153.161 43.0526C153.161 42.4199 153.276 41.7872 153.506 41.1546C153.736 40.5052 154.041 39.9142 154.419 39.3814C154.797 38.8486 155.397 38.4157 156.219 38.0827C157.042 37.7331 157.773 37.5583 158.415 37.5583C159.073 37.5583 159.739 37.6499 160.413 37.833C161.103 38.0161 161.58 38.2992 161.843 38.6821C162.452 39.5479 162.756 40.397 162.756 41.2295C162.756 41.679 162.657 42.062 162.46 42.3783C162.279 42.6946 162.016 43.0359 161.671 43.4022C161.391 43.7019 160.947 43.9017 160.339 44.0016C159.747 44.1015 159.155 44.1515 158.563 44.1515C158.185 44.1515 157.724 44.1182 157.181 44.0516C156.639 43.9683 156.113 43.8684 155.603 43.7519C155.636 44.0849 155.718 44.4095 155.849 44.7259C155.981 45.0422 156.137 45.2836 156.318 45.4501C156.647 45.7664 156.984 45.9662 157.329 46.0495C157.691 46.1327 158.152 46.1744 158.711 46.1744C159.303 46.1744 159.854 46.0745 160.363 45.8747C160.775 45.7248 161.112 45.6499 161.375 45.6499C161.687 45.6499 161.926 45.7498 162.09 45.9496C162.255 46.1327 162.337 46.3741 162.337 46.6738C162.337 47.0901 162.098 47.4314 161.621 47.6978C161.145 47.9642 160.594 48.164 159.969 48.2972C159.36 48.4137 158.867 48.472 158.489 48.472C157.716 48.472 156.968 48.3305 156.244 48.0474C155.521 47.7644 154.92 47.3648 154.443 46.8487C154.049 46.3825 153.736 45.8247 153.506 45.1754C153.276 44.5094 153.161 43.8018 153.161 43.0526ZM158.538 39.6811C158.176 39.6811 157.815 39.756 157.453 39.9059C157.091 40.039 156.795 40.2305 156.565 40.4803C156.269 40.7966 156.063 41.0547 155.948 41.2545C155.849 41.4376 155.784 41.6957 155.751 42.0287C156.162 42.1618 157.017 42.2284 158.316 42.2284C159.023 42.2284 159.566 42.1202 159.944 41.9038C160.339 41.6873 160.536 41.4043 160.536 41.0547C160.536 40.705 160.322 40.3887 159.895 40.1056C159.467 39.8226 159.015 39.6811 158.538 39.6811Z" fill="#047E70"/>
</svg>