<svg xmlns="http://www.w3.org/2000/svg" width="22" height="21" viewBox="0 0 22 21" fill="none">
  <path d="M8.06 4.1012e-05C6.17 -0.00995899 4.33 1.81004 5.17 4.07004H2C1.46957 4.07004 0.960859 4.28075 0.585786 4.65583C0.210714 5.0309 0 5.53961 0 6.07004V8.07004C0 8.33526 0.105357 8.58961 0.292893 8.77715C0.48043 8.96468 0.734784 9.07004 1 9.07004H10V6.07004H12V9.07004H21C21.2652 9.07004 21.5196 8.96468 21.7071 8.77715C21.8946 8.58961 22 8.33526 22 8.07004V6.07004C22 5.53961 21.7893 5.0309 21.4142 4.65583C21.0391 4.28075 20.5304 4.07004 20 4.07004H16.83C18 0.800041 13.6 -1.50996 11.57 1.31004L11 2.07004L10.43 1.29004C9.8 0.400041 8.93 0.010041 8.06 4.1012e-05ZM8 2.07004C8.89 2.07004 9.34 3.15004 8.71 3.78004C8.08 4.41004 7 3.96004 7 3.07004C7 2.80482 7.10536 2.55047 7.29289 2.36293C7.48043 2.1754 7.73478 2.07004 8 2.07004ZM14 2.07004C14.89 2.07004 15.34 3.15004 14.71 3.78004C14.08 4.41004 13 3.96004 13 3.07004C13 2.80482 13.1054 2.55047 13.2929 2.36293C13.4804 2.1754 13.7348 2.07004 14 2.07004ZM1 10.07V18.07C1 18.6005 1.21071 19.1092 1.58579 19.4843C1.96086 19.8593 2.46957 20.07 3 20.07H19C19.5304 20.07 20.0391 19.8593 20.4142 19.4843C20.7893 19.1092 21 18.6005 21 18.07V10.07H12V18.07H10V10.07H1Z" fill="black"/>
</svg>