<svg xmlns="http://www.w3.org/2000/svg" width="26" height="24" viewBox="0 0 26 24" fill="none">
  <path d="M25.2885 20.8116L20.3276 15.8507C20.8116 14.6407 20.5696 13.0677 19.4806 12.0997C18.3916 11.0108 16.8186 10.7688 15.4877 11.3738L17.7866 13.6727L16.0927 15.3667L13.6727 12.9467C13.0677 14.2777 13.3097 15.8507 14.3987 17.0606C15.4877 18.1496 16.9396 18.3916 18.1496 17.9076L23.1105 22.8685C23.3525 23.1105 23.7155 23.1105 23.8365 22.8685L25.0465 21.6585C25.4095 21.2955 25.4095 20.9325 25.2885 20.8116ZM13.3097 19.3596H0V16.9396C0 14.2777 4.35591 12.0997 9.67979 12.0997C10.2848 12.0997 10.8898 12.0997 11.3738 12.2207C11.0108 12.9467 10.8898 13.6727 10.8898 14.5197C10.8898 16.4556 11.8577 18.2706 13.3097 19.3596ZM9.67979 0C7.01785 0 4.8399 2.17795 4.8399 4.8399C4.8399 7.50184 7.01785 9.67979 9.67979 9.67979C12.3417 9.67979 14.5197 7.50184 14.5197 4.8399C14.5197 2.17795 12.3417 0 9.67979 0Z" fill="black"/>
</svg>
