<svg xmlns="http://www.w3.org/2000/svg" width="45" height="45" viewBox="0 0 45 45" fill="none">
  <path d="M42.7886 0H1.78286C0.796714 0 0 0.796714 0 1.78286V42.7886C0 43.7747 0.796714 44.5714 1.78286 44.5714H42.7886C43.7747 44.5714 44.5714 43.7747 44.5714 42.7886V1.78286C44.5714 0.796714 43.7747 0 42.7886 0ZM34.281 16.1404C34.2977 16.4023 34.2977 16.6753 34.2977 16.9427C34.2977 25.1216 28.0689 34.5429 16.6864 34.5429C13.1764 34.5429 9.92271 33.5233 7.18157 31.7683C7.683 31.824 8.16214 31.8463 8.67472 31.8463C11.5719 31.8463 14.235 30.8657 16.3577 29.2054C13.6389 29.1497 11.3546 27.3669 10.5746 24.9154C11.5273 25.0547 12.3853 25.0547 13.3659 24.804C11.9659 24.5196 10.7076 23.7593 9.80469 22.6522C8.90179 21.5452 8.41 20.1597 8.41286 18.7311V18.6531C9.23186 19.1156 10.1957 19.3997 11.2041 19.4387C10.3564 18.8737 9.66118 18.1083 9.18011 17.2103C8.69903 16.3123 8.44697 15.3095 8.44629 14.2907C8.44629 13.1374 8.74714 12.0844 9.28757 11.1707C10.8415 13.0836 12.7805 14.6481 14.9786 15.7625C17.1767 16.8769 19.5847 17.5163 22.0461 17.6391C21.1714 13.4327 24.3137 10.0286 28.0911 10.0286C29.874 10.0286 31.4786 10.7751 32.6096 11.9786C34.008 11.7167 35.3451 11.193 36.5374 10.491C36.075 11.9229 35.1056 13.1319 33.8186 13.8951C35.0666 13.7614 36.27 13.416 37.3843 12.9313C36.543 14.1681 35.49 15.2657 34.281 16.1404Z" fill="#F5F5F5"/>
</svg>